<svg xmlns="http://www.w3.org/2000/svg" viewBox="0 0 800 800"><defs><style>.a{fill:#f4b983;}.a,.b,.c,.d,.e,.f,.g,.h,.i,.j,.k,.l,.m,.n,.o,.p,.q,.r,.s,.t,.u,.v,.w,.x,.y,.z{stroke:#f2f2f2;}.a,.aa,.b,.c,.d,.e,.f,.g,.h,.i,.j,.k,.l,.m,.n,.o,.p,.q,.r,.s,.t,.u,.v,.w,.x,.y,.z{stroke-miterlimit:10;}.a,.b,.c,.d,.e,.f,.g,.h,.i,.j,.k,.l,.m,.n,.o,.p,.q,.r,.s,.t,.u,.v,.w,.x,.y{stroke-width:0.5px;}.b{fill:#99caaf;}.c{fill:#e4c0be;}.d{fill:#b2d0eb;}.e{fill:#d7c7e3;}.f{fill:#b090c6;}.g{fill:#f0a25a;}.h{fill:#77b894;}.i{fill:#d6a09d;}.j{fill:#65a1d7;}.k{fill:#55a679;}.l{fill:#3f8acd;}.m{fill:#ec8b31;}.n{fill:#bb615c;}.o{fill:#9c74b8;}.p{fill:#b16825;}.q{fill:#75578a;}.r{fill:#8c4945;}.s{fill:#2f689a;}.t{fill:#407d5b;}.u{fill:#4e3a5c;}.v{fill:#204567;}.w{fill:#764619;}.x{fill:#2b533d;}.y{fill:#5e312e;}.z{fill:none;}.aa{fill:#fff;stroke:#fff;}.ab{font-size:14.68px;fill:#4d4d4d;font-family:HelveticaNeue-CondensedBold, Helvetica Neue;}.ab,.ac,.ah,.aj,.al,.aq{font-weight:700;}.ac{font-size:17.43px;}.ac,.ah,.aj,.al,.aq{fill:#666;font-family:DINOT-Bold, DIN OT;}.ad{letter-spacing:-0.03em;}.ae{letter-spacing:-0.02em;}.af{letter-spacing:-0.01em;}.ag{letter-spacing:0em;}.ah{font-size:17.43px;}.ai{letter-spacing:-0.01em;}.aj{font-size:17.43px;}.ak{letter-spacing:-0.03em;}.al{font-size:17.43px;}.am{letter-spacing:-0.03em;}.an{letter-spacing:-0.01em;}.ao{letter-spacing:-0.04em;}.ap{letter-spacing:-0.08em;}.aq{font-size:17.43px;}.ar{letter-spacing:-0.01em;}.as{letter-spacing:-0.01em;}.at{letter-spacing:-0.01em;}</style></defs><polygon class="a" points="113.85 583.29 71.41 452.68 85.77 316.1 85.77 316.09 50.87 304.76 34.92 456.52 82.07 601.64 184.18 715.04 205.71 685.31 113.85 583.29"/><polygon class="b" points="534.21 116.44 645.31 197.16 713.96 316.07 748.88 304.76 672.58 172.61 549.13 82.92 399.88 51.19 399.88 87.89 534.21 116.44"/><polygon class="c" points="154.44 197.16 265.54 116.44 399.88 87.89 399.88 51.19 250.62 82.92 127.17 172.61 50.87 304.76 85.77 316.09 154.44 197.16"/><polygon class="d" points="748.88 304.76 713.96 316.07 713.98 316.1 728.34 452.68 685.9 583.29 594 685.35 593.98 685.36 615.57 715.04 717.68 601.64 764.83 456.52 748.88 304.76"/><polygon class="e" points="468.54 741.21 331.21 741.21 205.75 685.35 205.71 685.31 184.18 715.04 323.58 777.11 476.17 777.11 615.57 715.04 593.98 685.36 468.54 741.21"/><polygon class="e" points="460.91 705.32 338.84 705.32 227.32 655.66 227.25 655.59 205.71 685.31 205.75 685.35 331.21 741.21 468.54 741.21 593.98 685.36 572.39 655.68 460.91 705.32"/><polygon class="c" points="181.71 221.72 280.47 149.97 399.88 124.58 399.88 87.89 265.54 116.44 154.44 197.16 85.77 316.09 120.68 327.42 181.71 221.72"/><polygon class="a" points="145.63 564.95 107.91 448.85 120.67 327.44 120.68 327.42 85.77 316.09 85.77 316.1 71.41 452.68 113.85 583.29 205.71 685.31 227.25 655.59 145.63 564.95"/><polygon class="b" points="534.21 116.44 399.88 87.89 399.88 124.58 519.28 149.97 618.04 221.72 679.04 327.37 713.96 316.07 645.31 197.16 534.21 116.44"/><polygon class="d" points="679.08 327.44 691.84 448.85 654.12 564.95 572.43 655.66 572.39 655.68 593.98 685.36 594 685.35 685.9 583.29 728.34 452.68 713.98 316.1 713.96 316.07 679.04 327.37 679.08 327.44"/><polygon class="f" points="453.28 669.42 346.47 669.42 248.89 625.98 248.78 625.86 227.25 655.59 227.32 655.66 338.84 705.32 460.91 705.32 572.39 655.68 550.8 626 453.28 669.42"/><polygon class="g" points="177.41 546.6 144.41 445.01 155.57 338.78 155.59 338.75 120.68 327.42 120.67 327.44 107.91 448.85 145.63 564.95 227.25 655.59 248.78 625.86 177.41 546.6"/><polygon class="h" points="504.36 183.49 590.77 246.27 644.12 338.68 679.04 327.37 618.04 221.72 519.28 149.97 399.88 124.58 399.88 161.28 504.36 183.49"/><polygon class="i" points="181.71 221.72 120.68 327.42 155.59 338.75 208.98 246.27 295.39 183.49 399.88 161.28 399.88 124.58 280.47 149.97 181.71 221.72"/><polygon class="j" points="644.18 338.78 655.34 445.01 622.34 546.6 550.86 625.98 550.8 626 572.39 655.68 572.43 655.66 654.12 564.95 691.84 448.85 679.08 327.44 679.04 327.37 644.12 338.68 644.18 338.78"/><polygon class="h" points="489.43 217.01 563.5 270.83 609.2 349.99 644.12 338.68 590.77 246.27 504.36 183.49 399.88 161.28 399.88 197.98 489.43 217.01"/><polygon class="f" points="445.65 633.53 354.1 633.53 270.46 596.29 270.31 596.13 248.78 625.86 248.89 625.98 346.47 669.42 453.28 669.42 550.8 626 529.21 596.33 445.65 633.53"/><polygon class="j" points="609.28 350.12 618.85 441.17 590.56 528.25 529.29 596.29 529.21 596.33 550.8 626 550.86 625.98 622.34 546.6 655.34 445.01 644.18 338.78 644.12 338.68 609.2 349.99 609.28 350.12"/><polygon class="i" points="236.25 270.83 310.32 217.01 399.88 197.98 399.88 161.28 295.39 183.49 208.98 246.27 155.59 338.75 190.49 350.09 236.25 270.83"/><polygon class="g" points="144.41 445.01 177.41 546.6 248.78 625.86 270.31 596.13 209.19 528.25 180.9 441.17 190.47 350.12 190.49 350.09 155.59 338.75 155.57 338.78 144.41 445.01"/><polygon class="k" points="474.5 250.54 536.23 295.38 574.28 361.29 609.2 349.99 563.5 270.83 489.43 217.01 399.88 197.98 399.88 234.68 474.5 250.54"/><polygon class="l" points="574.38 361.46 582.35 437.34 558.78 509.9 507.72 566.6 507.62 566.65 529.21 596.33 529.29 596.29 590.56 528.25 618.85 441.17 609.28 350.12 609.2 349.99 574.28 361.29 574.38 361.46"/><polygon class="m" points="240.97 509.9 217.4 437.34 225.37 361.46 225.4 361.42 190.49 350.09 190.47 350.12 180.9 441.17 209.19 528.25 270.31 596.13 291.85 566.4 240.97 509.9"/><polygon class="n" points="263.52 295.38 325.25 250.54 399.88 234.68 399.88 197.98 310.32 217.01 236.25 270.83 190.49 350.09 225.4 361.42 263.52 295.38"/><polygon class="o" points="354.1 633.53 445.65 633.53 529.21 596.33 507.62 566.65 438.02 597.63 361.73 597.63 292.03 566.6 291.85 566.4 270.31 596.13 270.46 596.29 354.1 633.53"/><polygon class="k" points="459.58 284.06 508.96 319.94 539.36 372.6 574.28 361.29 536.23 295.38 474.5 250.54 399.88 234.68 399.88 271.37 459.58 284.06"/><polygon class="n" points="290.79 319.94 340.17 284.06 399.88 271.37 399.88 234.68 325.25 250.54 263.52 295.38 225.4 361.42 260.3 372.75 290.79 319.94"/><polygon class="o" points="430.39 561.74 369.36 561.74 313.6 536.91 313.38 536.68 291.85 566.4 292.03 566.6 361.73 597.63 438.02 597.63 507.62 566.65 486.03 536.97 430.39 561.74"/><polygon class="m" points="272.75 491.55 253.89 433.5 260.27 372.8 260.3 372.75 225.4 361.42 225.37 361.46 217.4 437.34 240.97 509.9 291.85 566.4 313.38 536.68 272.75 491.55"/><polygon class="l" points="558.78 509.9 582.35 437.34 574.38 361.46 574.28 361.29 539.36 372.6 539.48 372.8 545.86 433.5 527 491.55 486.15 536.91 486.03 536.97 507.62 566.65 507.72 566.6 558.78 509.9"/><polygon class="p" points="304.53 473.2 290.39 429.67 295.17 384.14 295.21 384.08 260.3 372.75 260.27 372.8 253.89 433.5 272.75 491.55 313.38 536.68 334.92 506.95 304.53 473.2"/><polygon class="q" points="422.76 525.84 376.99 525.84 335.17 507.22 334.92 506.95 313.38 536.68 313.6 536.91 369.36 561.74 430.39 561.74 486.03 536.97 464.44 507.29 422.76 525.84"/><polygon class="r" points="318.06 344.49 355.1 317.59 399.88 308.07 399.88 271.37 340.17 284.06 290.79 319.94 260.3 372.75 295.21 384.08 318.06 344.49"/><polygon class="s" points="504.58 384.14 509.36 429.67 495.22 473.2 464.58 507.22 464.44 507.29 486.03 536.97 486.15 536.91 527 491.55 545.86 433.5 539.48 372.8 539.36 372.6 504.44 383.9 504.58 384.14"/><polygon class="t" points="459.58 284.06 399.88 271.37 399.88 308.07 444.65 317.59 481.69 344.49 504.44 383.9 539.36 372.6 508.96 319.94 459.58 284.06"/><polygon class="q" points="415.13 489.95 384.62 489.95 356.74 477.54 356.45 477.22 334.92 506.95 335.17 507.22 376.99 525.84 422.76 525.84 464.44 507.29 442.85 477.61 415.13 489.95"/><polygon class="s" points="469.68 395.48 472.87 425.83 463.44 454.86 443.01 477.54 442.85 477.61 464.44 507.29 464.58 507.22 495.22 473.2 509.36 429.67 504.58 384.14 504.44 383.9 469.52 395.21 469.68 395.48"/><polygon class="p" points="336.31 454.86 326.88 425.83 330.07 395.48 330.11 395.41 295.21 384.08 295.17 384.14 290.39 429.67 304.53 473.2 334.92 506.95 356.45 477.22 336.31 454.86"/><polygon class="t" points="429.73 351.11 454.42 369.05 469.52 395.21 504.44 383.9 481.69 344.49 444.65 317.59 399.88 308.07 399.88 344.76 429.73 351.11"/><polygon class="r" points="318.06 344.49 295.21 384.08 330.11 395.41 345.33 369.05 370.02 351.11 399.88 344.76 399.88 308.07 355.1 317.59 318.06 344.49"/><polygon class="u" points="407.5 454.05 392.25 454.05 378.31 447.85 377.99 447.49 356.45 477.22 356.74 477.54 384.62 489.95 415.13 489.95 442.85 477.61 421.25 447.93 407.5 454.05"/><polygon class="v" points="434.77 406.82 436.37 421.99 431.65 436.51 421.44 447.85 421.25 447.93 442.85 477.61 443.01 477.54 463.44 454.86 472.87 425.83 469.68 395.48 469.52 395.21 434.6 406.52 434.77 406.82"/><polygon class="w" points="326.88 425.83 336.31 454.86 356.45 477.22 377.99 447.49 368.1 436.51 363.38 421.99 364.97 406.82 365.02 406.74 330.11 395.41 330.07 395.48 326.88 425.83"/><polygon class="x" points="414.8 384.63 427.15 393.6 434.6 406.52 469.52 395.21 454.42 369.05 429.73 351.11 399.88 344.76 399.88 381.46 414.8 384.63"/><polygon class="y" points="372.6 393.6 384.95 384.63 399.88 381.46 399.88 344.76 370.02 351.11 345.33 369.05 330.11 395.41 365.02 406.74 372.6 393.6"/><polygon class="u" points="392.25 454.05 407.5 454.05 421.25 447.93 399.42 417.91 377.99 447.49 378.31 447.85 392.25 454.05"/><polygon class="v" points="399.88 417.91 399.88 417.76 399.42 417.91 421.25 447.93 421.44 447.85 431.65 436.51 436.37 421.99 434.77 406.82 434.6 406.52 399.88 417.76 399.88 417.91"/><polygon class="x" points="434.6 406.52 427.15 393.6 414.8 384.63 399.88 381.46 399.88 417.76 434.6 406.52"/><polygon class="y" points="399.88 417.76 399.88 381.46 384.95 384.63 372.6 393.6 365.02 406.74 399.42 417.91 399.88 417.76"/><polygon class="w" points="365.02 406.74 364.97 406.82 363.38 421.99 368.1 436.51 377.99 447.49 399.42 417.91 365.02 406.74"/><line class="z" x1="250.62" y1="82.92" x2="399.42" y2="417.91"/><line class="z" x1="549.13" y1="82.92" x2="399.42" y2="417.91"/><line class="z" x1="672.58" y1="172.61" x2="399.42" y2="417.91"/><line class="z" x1="748.88" y1="304.76" x2="399.42" y2="417.91"/><line class="z" x1="764.83" y1="456.52" x2="399.42" y2="417.91"/><line class="z" x1="717.68" y1="601.64" x2="399.42" y2="417.91"/><line class="z" x1="615.57" y1="715.04" x2="399.42" y2="417.91"/><line class="z" x1="476.17" y1="777.11" x2="399.42" y2="417.91"/><line class="z" x1="323.58" y1="777.11" x2="399.42" y2="417.91"/><line class="z" x1="184.18" y1="715.04" x2="399.42" y2="417.91"/><line class="z" x1="82.07" y1="601.64" x2="399.42" y2="417.91"/><line class="z" x1="34.92" y1="456.52" x2="399.42" y2="417.91"/><line class="z" x1="50.87" y1="304.76" x2="399.42" y2="417.91"/><line class="z" x1="127.17" y1="172.61" x2="399.42" y2="417.91"/><line class="z" x1="399.87" y1="51.19" x2="399.87" y2="417.91"/><text/><line class="z" x1="615.57" y1="715.04" x2="399.42" y2="417.91"/><rect class="aa" x="386.45" y="80.71" width="24.28" height="18.08"/><rect class="aa" x="386.45" y="44.26" width="24.28" height="18.08"/><rect class="aa" x="386.45" y="117.16" width="24.28" height="18.08"/><rect class="aa" x="386.45" y="153.61" width="24.28" height="18.08"/><rect class="aa" x="386.45" y="190.06" width="24.28" height="18.08"/><rect class="aa" x="386.45" y="226.51" width="24.28" height="18.08"/><rect class="aa" x="386.45" y="262.96" width="24.28" height="18.08"/><rect class="aa" x="386.45" y="299.41" width="24.28" height="18.08"/><rect class="aa" x="386.45" y="335.86" width="24.28" height="18.08"/><rect class="aa" x="386.45" y="372.31" width="24.28" height="18.08"/><text class="ab" transform="translate(388.03 57.88)">100</text><text class="ab" transform="translate(391.55 94.42)">90</text><text class="ab" transform="translate(391.55 130.96)">80</text><text class="ab" transform="translate(391.55 167.49)">70</text><text class="ab" transform="translate(391.55 204.03)">60</text><text class="ab" transform="translate(391.55 240.56)">50</text><text class="ab" transform="translate(391.55 277.1)">40</text><text class="ab" transform="translate(391.55 313.63)">30</text><text class="ab" transform="translate(391.55 350.17)">20</text><text class="ab" transform="translate(391.55 386.7)">10</text><text class="ac" transform="matrix(0.81, 0.59, -0.59, 0.81, 573.16, 90.12)"><tspan class="ad">A</tspan><tspan class="ae" x="10.65" y="0">W</tspan><tspan x="25.83" y="0">ARENE</tspan><tspan class="af" x="81.84" y="0">S</tspan><tspan class="ag" x="92.04" y="0">S</tspan></text><text class="ah" transform="matrix(0.32, -0.95, 0.95, 0.32, 740.14, 592.33)">EN<tspan class="ai" x="22.94" y="0">GA</tspan><tspan x="44.82" y="0">GEMENT</tspan></text><text class="aj" transform="matrix(1, 0.01, -0.01, 1, 348.33, 796.07)"><tspan class="ak">C</tspan><tspan x="10.25" y="0">ONVERSION</tspan></text><text class="al" transform="matrix(0.31, 0.95, -0.95, 0.31, 27.56, 501.99)"><tspan class="am">L</tspan><tspan class="an" x="9.57" y="0">O</tspan><tspan class="ao" x="20.62" y="0">Y</tspan><tspan x="29.89" y="0">A</tspan><tspan class="ap" x="41.01" y="0">L</tspan><tspan x="49.64" y="0">TY</tspan></text><text class="aq" transform="matrix(0.82, -0.58, 0.58, 0.82, 147.23, 147.35)">A<tspan class="ar" x="11.12" y="0">DV</tspan><tspan x="32.39" y="0">O</tspan><tspan class="as" x="43.61" y="0">C</tspan><tspan class="ar" x="54.23" y="0">A</tspan><tspan class="at" x="65.17" y="0">C</tspan><tspan x="75.79" y="0">Y</tspan></text></svg>