<svg xmlns="http://www.w3.org/2000/svg" viewBox="0 0 800 800"><defs><style>.cls-1{fill:#99caaf;}.cls-1,.cls-10,.cls-11,.cls-12,.cls-13,.cls-14,.cls-15,.cls-16,.cls-17,.cls-18,.cls-19,.cls-2,.cls-20,.cls-3,.cls-4,.cls-5,.cls-6,.cls-7,.cls-8,.cls-9{stroke:#f2f2f2;stroke-width:0.5px;}.cls-1,.cls-10,.cls-11,.cls-12,.cls-13,.cls-14,.cls-15,.cls-16,.cls-17,.cls-18,.cls-19,.cls-2,.cls-20,.cls-21,.cls-22,.cls-3,.cls-4,.cls-5,.cls-6,.cls-7,.cls-8,.cls-9{stroke-miterlimit:10;}.cls-2{fill:#f4b983;}.cls-3{fill:#d7c7e3;}.cls-4{fill:#b2d0eb;}.cls-5{fill:#77b894;}.cls-6{fill:#f0a25a;}.cls-7{fill:#b090c6;}.cls-8{fill:#65a1d7;}.cls-9{fill:#55a679;}.cls-10{fill:#ec8b31;}.cls-11{fill:#9c74b8;}.cls-12{fill:#3f8acd;}.cls-13{fill:#407d5b;}.cls-14{fill:#b16825;}.cls-15{fill:#75578a;}.cls-16{fill:#2f689a;}.cls-17{fill:#2b533d;}.cls-18{fill:#764619;}.cls-19{fill:#4e3a5c;}.cls-20{fill:#204567;}.cls-21{fill:none;stroke-width:0.75px;}.cls-21,.cls-22{stroke:#fff;}.cls-22{fill:#fff;}.cls-23{fill:#4d4d4d;}.cls-24{fill:#666;}</style></defs><g id="Shapes"><polygon class="cls-1" points="400.64 414.39 763.42 414.39 735.9 276.05 657.02 158.01 538.98 79.13 400.64 51.62 400.64 414.39"/><polygon class="cls-2" points="398.82 414.39 398.82 51.62 260.49 79.13 142.44 158.01 63.57 276.05 36.05 414.39 398.82 414.39"/><polygon class="cls-3" points="398.82 416.21 36.05 416.21 63.57 554.54 142.44 672.59 260.49 751.47 398.82 778.98 398.82 416.21"/><polygon class="cls-4" points="400.64 416.21 400.64 778.98 538.98 751.47 657.02 672.59 735.9 554.54 763.42 416.21 400.64 416.21"/><polygon class="cls-1" points="400.56 414.48 727.96 414.48 703.12 289.63 631.94 183.1 525.4 111.91 400.56 87.08 400.56 414.48"/><polygon class="cls-2" points="398.91 414.48 398.91 87.08 274.07 111.91 167.53 183.1 96.35 289.63 71.51 414.48 398.91 414.48"/><polygon class="cls-3" points="398.91 416.12 71.51 416.12 96.35 540.97 167.53 647.5 274.07 718.69 398.91 743.52 398.91 416.12"/><polygon class="cls-4" points="400.56 416.12 400.56 743.52 525.4 718.69 631.94 647.5 703.12 540.97 727.96 416.12 400.56 416.12"/><polygon class="cls-5" points="400.46 414.58 688.39 414.58 666.55 304.78 603.95 211.08 510.25 148.48 400.46 126.64 400.46 414.58"/><polygon class="cls-6" points="399.01 414.58 399.01 126.64 289.21 148.48 195.52 211.08 132.91 304.78 111.07 414.58 399.01 414.58"/><polygon class="cls-7" points="399.01 416.02 111.07 416.02 132.91 525.82 195.52 619.51 289.21 682.12 399.01 703.96 399.01 416.02"/><polygon class="cls-8" points="400.46 416.02 400.46 703.96 510.25 682.12 603.95 619.51 666.55 525.82 688.39 416.02 400.46 416.02"/><polygon class="cls-5" points="400.37 414.66 653.86 414.66 634.63 318 579.51 235.52 497.03 180.4 400.37 161.18 400.37 414.66"/><polygon class="cls-6" points="399.1 414.66 399.1 161.18 302.44 180.4 219.95 235.52 164.84 318 145.61 414.66 399.1 414.66"/><polygon class="cls-7" points="399.1 415.93 145.61 415.93 164.84 512.6 219.95 595.08 302.44 650.19 399.1 669.42 399.1 415.93"/><polygon class="cls-8" points="400.37 415.93 400.37 669.42 497.03 650.19 579.51 595.08 634.63 512.6 653.86 415.93 400.37 415.93"/><polygon class="cls-9" points="400.28 414.75 617.23 414.75 600.77 332.03 553.6 261.43 483.01 214.26 400.28 197.81 400.28 414.75"/><polygon class="cls-10" points="399.19 414.75 399.19 197.81 316.46 214.26 245.87 261.43 198.7 332.03 182.24 414.75 399.19 414.75"/><polygon class="cls-11" points="399.19 415.84 182.24 415.84 198.7 498.57 245.87 569.16 316.46 616.34 399.19 632.79 399.19 415.84"/><polygon class="cls-12" points="400.28 415.84 400.28 632.79 483.01 616.34 553.6 569.16 600.77 498.57 617.23 415.84 400.28 415.84"/><polygon class="cls-9" points="400.19 414.84 582.03 414.84 568.24 345.5 528.7 286.33 469.53 246.8 400.19 233 400.19 414.84"/><polygon class="cls-10" points="399.28 414.84 399.28 233 329.94 246.8 270.77 286.33 231.23 345.5 217.44 414.84 399.28 414.84"/><polygon class="cls-11" points="399.28 415.75 217.44 415.75 231.23 485.1 270.77 544.27 329.94 583.8 399.28 597.6 399.28 415.75"/><polygon class="cls-12" points="400.19 415.75 400.19 597.6 469.53 583.8 528.7 544.27 568.24 485.1 582.03 415.75 400.19 415.75"/><polygon class="cls-13" points="400.1 414.93 545.58 414.93 534.54 359.46 502.91 312.12 455.57 280.49 400.1 269.46 400.1 414.93"/><polygon class="cls-14" points="399.37 414.93 399.37 269.46 343.89 280.49 296.56 312.12 264.93 359.46 253.89 414.93 399.37 414.93"/><polygon class="cls-15" points="399.37 415.66 253.89 415.66 264.93 471.14 296.56 518.48 343.89 550.11 399.37 561.14 399.37 415.66"/><polygon class="cls-16" points="400.1 415.66 400.1 561.14 455.57 550.11 502.91 518.48 534.54 471.14 545.58 415.66 400.1 415.66"/><polygon class="cls-13" points="400.01 415.02 509.08 415.02 500.81 373.43 477.09 337.94 441.6 314.23 400.01 305.95 400.01 415.02"/><polygon class="cls-14" points="399.46 415.02 399.46 305.95 357.87 314.23 322.38 337.94 298.66 373.43 290.39 415.02 399.46 415.02"/><polygon class="cls-15" points="399.46 415.57 290.39 415.57 298.66 457.17 322.38 492.66 357.87 516.37 399.46 524.64 399.46 415.57"/><polygon class="cls-16" points="400.01 415.57 400.01 524.64 441.6 516.37 477.09 492.66 500.81 457.17 509.08 415.57 400.01 415.57"/><polygon class="cls-17" points="399.92 415.11 474.38 415.11 468.73 386.72 452.55 362.49 428.31 346.3 399.92 340.65 399.92 415.11"/><polygon class="cls-18" points="399.55 415.11 399.55 340.65 371.15 346.3 346.92 362.49 330.73 386.72 325.08 415.11 399.55 415.11"/><polygon class="cls-19" points="399.55 415.49 325.08 415.49 330.73 443.88 346.92 468.11 371.15 484.3 399.55 489.95 399.55 415.49"/><polygon class="cls-20" points="399.92 415.49 399.92 489.95 428.31 484.3 452.55 468.11 468.73 443.88 474.38 415.49 399.92 415.49"/><polygon class="cls-17" points="399.83 415.2 438.49 415.2 435.56 400.46 427.15 387.88 414.57 379.48 399.83 376.55 399.83 415.2"/><polygon class="cls-18" points="399.64 415.2 399.64 376.55 384.9 379.48 372.32 387.88 363.91 400.46 360.98 415.2 399.64 415.2"/><polygon class="cls-19" points="399.64 415.4 360.98 415.4 363.91 430.14 372.32 442.72 384.9 451.12 399.64 454.05 399.64 415.4"/><polygon class="cls-20" points="399.83 415.4 399.83 454.05 414.57 451.12 427.15 442.72 435.56 430.14 438.49 415.4 399.83 415.4"/></g><g id="Lines"><line class="cls-21" x1="399.73" y1="51.62" x2="399.73" y2="778.98"/><line class="cls-21" x1="763.42" y1="415.3" x2="36.05" y2="415.3"/><line class="cls-21" x1="260.56" y1="79.3" x2="538.91" y2="751.3"/><line class="cls-21" x1="735.73" y1="276.12" x2="63.73" y2="554.47"/><line class="cls-21" x1="142.57" y1="158.14" x2="656.9" y2="672.46"/><line class="cls-21" x1="656.9" y1="158.14" x2="142.57" y2="672.46"/><line class="cls-21" x1="63.73" y1="276.12" x2="735.73" y2="554.47"/><line class="cls-21" x1="538.91" y1="79.3" x2="260.56" y2="751.3"/></g><g id="Labels"><rect class="cls-22" x="386.45" y="80.71" width="24.28" height="18.08"/><rect class="cls-22" x="386.45" y="44.26" width="24.28" height="18.08"/><rect class="cls-22" x="386.45" y="117.16" width="24.28" height="18.08"/><rect class="cls-22" x="386.45" y="153.61" width="24.28" height="18.08"/><rect class="cls-22" x="386.45" y="190.06" width="24.28" height="18.08"/><rect class="cls-22" x="386.45" y="226.51" width="24.28" height="18.08"/><rect class="cls-22" x="386.45" y="262.96" width="24.28" height="18.08"/><rect class="cls-22" x="386.45" y="299.41" width="24.28" height="18.08"/><rect class="cls-22" x="386.45" y="335.86" width="24.28" height="18.08"/><rect class="cls-22" x="386.45" y="372.31" width="24.28" height="18.08"/><path class="cls-23" d="M390.7,50.54h-2.07V49.17h.19a3,3,0,0,0,1.66-.4,1.85,1.85,0,0,0,.78-1.28h1.55V57.88H390.7Z"/><path class="cls-23" d="M395.41,51a5.48,5.48,0,0,1,.4-1.77,2.79,2.79,0,0,1,1-1.24,3.18,3.18,0,0,1,1.82-.46,4,4,0,0,1,1.57.27,2.18,2.18,0,0,1,1,.88,4.14,4.14,0,0,1,.53,1.56,15.47,15.47,0,0,1,.15,2.34c0,.73,0,1.42-.07,2.09a5.48,5.48,0,0,1-.4,1.76,2.68,2.68,0,0,1-1,1.22,3.25,3.25,0,0,1-1.81.44A4.51,4.51,0,0,1,397,57.8a2,2,0,0,1-1-.86,4.14,4.14,0,0,1-.53-1.56,15.47,15.47,0,0,1-.15-2.34C395.34,52.32,395.36,51.62,395.41,51Zm2.09,4.14a4,4,0,0,0,.19,1,.86.86,0,0,0,.35.49,1,1,0,0,0,.56.13.94.94,0,0,0,.57-.17,1.11,1.11,0,0,0,.34-.57,5,5,0,0,0,.18-1.08c0-.45.05-1,.05-1.67V52.09c0-.66,0-1.19-.05-1.61a4.54,4.54,0,0,0-.18-1,.94.94,0,0,0-.36-.5,1.12,1.12,0,0,0-.55-.13A1,1,0,0,0,398,49a1.11,1.11,0,0,0-.34.57,5,5,0,0,0-.18,1.08c0,.45-.05,1-.05,1.68V53.5C397.45,54.15,397.47,54.69,397.5,55.1Z"/><path class="cls-23" d="M402.46,51a5.49,5.49,0,0,1,.39-1.77,2.81,2.81,0,0,1,1-1.24,3.14,3.14,0,0,1,1.81-.46,4,4,0,0,1,1.58.27,2.23,2.23,0,0,1,1,.88,4.32,4.32,0,0,1,.53,1.56,15.47,15.47,0,0,1,.15,2.34c0,.73,0,1.42-.07,2.09a5.76,5.76,0,0,1-.4,1.76,2.7,2.7,0,0,1-1,1.22,3.23,3.23,0,0,1-1.81.44,4.41,4.41,0,0,1-1.57-.25,2.06,2.06,0,0,1-1-.86,4.14,4.14,0,0,1-.52-1.56,14.15,14.15,0,0,1-.16-2.34C402.38,52.32,402.41,51.62,402.46,51Zm2.09,4.14a3.66,3.66,0,0,0,.18,1,1,1,0,0,0,.35.49,1.08,1.08,0,0,0,.56.13.9.9,0,0,0,.57-.17,1.12,1.12,0,0,0,.35-.57,5.09,5.09,0,0,0,.17-1.08c0-.45.06-1,.06-1.67V52.09c0-.66,0-1.19-.06-1.61a3.58,3.58,0,0,0-.18-1,.93.93,0,0,0-.35-.5,1.16,1.16,0,0,0-.56-.13.92.92,0,0,0-.57.17,1.12,1.12,0,0,0-.35.57,5.09,5.09,0,0,0-.17,1.08c0,.45-.05,1-.05,1.68V53.5C404.5,54.15,404.51,54.69,404.55,55.1Z"/><path class="cls-23" d="M394.24,92.92a.81.81,0,0,0,.74.33,1.08,1.08,0,0,0,.68-.2,1.34,1.34,0,0,0,.39-.55,3.26,3.26,0,0,0,.18-.84c0-.32,0-.68,0-1.06v-.5h0a1.85,1.85,0,0,1-.76.64,2.73,2.73,0,0,1-1.2.24,2.6,2.6,0,0,1-1.17-.24,2.06,2.06,0,0,1-.79-.67,3.11,3.11,0,0,1-.44-1,5.89,5.89,0,0,1-.14-1.3,4.22,4.22,0,0,1,.8-2.76,3.2,3.2,0,0,1,2.57-1,3.23,3.23,0,0,1,1.73.4,2.75,2.75,0,0,1,1,1.07,4.53,4.53,0,0,1,.45,1.55,18.08,18.08,0,0,1,.1,1.84c0,.74,0,1.46-.07,2.15a5.54,5.54,0,0,1-.39,1.82,2.7,2.7,0,0,1-1.05,1.26,3.58,3.58,0,0,1-2,.46,5.34,5.34,0,0,1-1.08-.11,2.2,2.2,0,0,1-.92-.41,2.18,2.18,0,0,1-.64-.81A3,3,0,0,1,392,92h2A1.74,1.74,0,0,0,394.24,92.92Zm-.11-4a.93.93,0,0,0,.88.46,1,1,0,0,0,.9-.46,3.24,3.24,0,0,0,.26-1.51,7,7,0,0,0,0-.82A2.28,2.28,0,0,0,396,86a1,1,0,0,0-.35-.43,1.07,1.07,0,0,0-.6-.15,1.13,1.13,0,0,0-.61.15,1,1,0,0,0-.34.43,2.46,2.46,0,0,0-.16.66q0,.38,0,.81A3.24,3.24,0,0,0,394.13,89Z"/><path class="cls-23" d="M398.93,87.49a5.61,5.61,0,0,1,.4-1.77,2.81,2.81,0,0,1,1-1.23,3.1,3.1,0,0,1,1.82-.46,4,4,0,0,1,1.58.27,2.19,2.19,0,0,1,1,.87,4.13,4.13,0,0,1,.53,1.57,15.33,15.33,0,0,1,.16,2.34c0,.72,0,1.42-.08,2.08a5.76,5.76,0,0,1-.39,1.77,2.67,2.67,0,0,1-1,1.21,3.23,3.23,0,0,1-1.81.44,4.2,4.2,0,0,1-1.57-.25,2,2,0,0,1-1-.85,4.32,4.32,0,0,1-.53-1.56,15.47,15.47,0,0,1-.15-2.34C398.86,88.85,398.88,88.16,398.93,87.49ZM401,91.64a4,4,0,0,0,.19,1,.9.9,0,0,0,.35.49,1.06,1.06,0,0,0,.56.14.94.94,0,0,0,.57-.17,1.2,1.2,0,0,0,.35-.58,5,5,0,0,0,.17-1.08c0-.44.05-1,.05-1.67V88.62c0-.65,0-1.19-.05-1.61a3.65,3.65,0,0,0-.18-1,1,1,0,0,0-.35-.49,1.08,1.08,0,0,0-.56-.13.89.89,0,0,0-.58.17,1.11,1.11,0,0,0-.34.57,5.72,5.72,0,0,0-.18,1.08c0,.45,0,1,0,1.67V90C401,90.69,401,91.22,401,91.64Z"/><path class="cls-23" d="M392.19,126.33a2,2,0,0,1,1.33-.88v0a1.84,1.84,0,0,1-.72-.32,2,2,0,0,1-.46-.5,1.91,1.91,0,0,1-.25-.59,2.44,2.44,0,0,1-.07-.59,2.7,2.7,0,0,1,.81-2.19,4.08,4.08,0,0,1,4.48,0,2.7,2.7,0,0,1,.81,2.19,2,2,0,0,1-.08.59,2.18,2.18,0,0,1-.25.59,1.91,1.91,0,0,1-1.16.82v0a1.94,1.94,0,0,1,1.32.88,3.15,3.15,0,0,1,.44,1.69,5.35,5.35,0,0,1-.11,1,2.5,2.5,0,0,1-.46,1,2.72,2.72,0,0,1-1,.78,4.17,4.17,0,0,1-1.74.31,4.24,4.24,0,0,1-1.74-.31,2.69,2.69,0,0,1-1-.78,2.52,2.52,0,0,1-.47-1,5.35,5.35,0,0,1-.11-1A3.15,3.15,0,0,1,392.19,126.33Zm1.73,2.36a1.6,1.6,0,0,0,.19.57,1,1,0,0,0,.37.38,1.2,1.2,0,0,0,.59.14,1.17,1.17,0,0,0,.59-.14,1,1,0,0,0,.37-.38,1.42,1.42,0,0,0,.19-.57,4,4,0,0,0,.06-.7,3.8,3.8,0,0,0-.06-.7,1.42,1.42,0,0,0-.19-.57,1,1,0,0,0-.37-.38,1.17,1.17,0,0,0-.59-.14,1.2,1.2,0,0,0-.59.14,1,1,0,0,0-.37.38,1.6,1.6,0,0,0-.19.57,5,5,0,0,0-.05.7A5.24,5.24,0,0,0,393.92,128.69Zm.4-4.22a1,1,0,0,0,1.5,0,1.75,1.75,0,0,0,.28-1.1c0-1-.34-1.43-1-1.43s-1,.48-1,1.43A1.81,1.81,0,0,0,394.32,124.47Z"/><path class="cls-23" d="M398.93,124a5.48,5.48,0,0,1,.4-1.77,2.79,2.79,0,0,1,1-1.24,3.18,3.18,0,0,1,1.82-.46,4,4,0,0,1,1.58.27,2.27,2.27,0,0,1,1,.88,4.14,4.14,0,0,1,.53,1.56,15.33,15.33,0,0,1,.16,2.34c0,.73,0,1.42-.08,2.09a5.9,5.9,0,0,1-.39,1.77,2.72,2.72,0,0,1-1,1.21,3.23,3.23,0,0,1-1.81.44,4.41,4.41,0,0,1-1.57-.25,2.09,2.09,0,0,1-1-.85,4.45,4.45,0,0,1-.53-1.57,15.47,15.47,0,0,1-.15-2.34C398.86,125.39,398.88,124.69,398.93,124Zm2.09,4.14a4,4,0,0,0,.19,1,.9.9,0,0,0,.35.49,1.06,1.06,0,0,0,.56.13.94.94,0,0,0,.57-.17A1.12,1.12,0,0,0,403,129a5.09,5.09,0,0,0,.17-1.08c0-.45.05-1,.05-1.67v-1.13c0-.66,0-1.19-.05-1.61a3.58,3.58,0,0,0-.18-1,1,1,0,0,0-.35-.5,1.19,1.19,0,0,0-.56-.13,1,1,0,0,0-.58.17,1.11,1.11,0,0,0-.34.57,5.72,5.72,0,0,0-.18,1.08c0,.45,0,1,0,1.68v1.13C401,127.22,401,127.76,401,128.17Z"/><path class="cls-23" d="M398.27,158.92a13.33,13.33,0,0,0-1.15,2,20.08,20.08,0,0,0-.89,2.14,21.91,21.91,0,0,0-.63,2.24c-.17.76-.29,1.51-.38,2.24H393c.08-.63.2-1.28.35-2a18,18,0,0,1,.63-2.11,19.11,19.11,0,0,1,.94-2.16,17.41,17.41,0,0,1,1.33-2.13h-4.38V157.3h6.4Z"/><path class="cls-23" d="M398.93,160.56a5.61,5.61,0,0,1,.4-1.77,2.81,2.81,0,0,1,1-1.23,3.1,3.1,0,0,1,1.82-.46,4,4,0,0,1,1.58.27,2.19,2.19,0,0,1,1,.87,4.13,4.13,0,0,1,.53,1.57,15.33,15.33,0,0,1,.16,2.34c0,.72,0,1.42-.08,2.08a5.76,5.76,0,0,1-.39,1.77,2.67,2.67,0,0,1-1,1.21,3.23,3.23,0,0,1-1.81.44,4.2,4.2,0,0,1-1.57-.25,2,2,0,0,1-1-.85A4.32,4.32,0,0,1,399,165a15.47,15.47,0,0,1-.15-2.34C398.86,161.92,398.88,161.23,398.93,160.56Zm2.09,4.15a4,4,0,0,0,.19,1,.87.87,0,0,0,.35.49,1.06,1.06,0,0,0,.56.14.94.94,0,0,0,.57-.17,1.2,1.2,0,0,0,.35-.58,4.88,4.88,0,0,0,.17-1.07c0-.45.05-1,.05-1.68v-1.13c0-.65,0-1.19-.05-1.61a3.65,3.65,0,0,0-.18-1,1,1,0,0,0-.35-.49,1.08,1.08,0,0,0-.56-.13.89.89,0,0,0-.58.17,1.11,1.11,0,0,0-.34.57,5.72,5.72,0,0,0-.18,1.08c0,.45,0,1,0,1.67v1.13C401,163.76,401,164.29,401,164.71Z"/><path class="cls-23" d="M395.9,195.34a.81.81,0,0,0-.74-.33,1.09,1.09,0,0,0-.67.2,1.25,1.25,0,0,0-.39.55,2.88,2.88,0,0,0-.19.84c0,.32,0,.67,0,1.06v.51h0a1.84,1.84,0,0,1,.75-.65,2.6,2.6,0,0,1,1.2-.25,2.47,2.47,0,0,1,1.17.25,2,2,0,0,1,.79.67,2.92,2.92,0,0,1,.44,1,5.82,5.82,0,0,1,.14,1.3,4.15,4.15,0,0,1-.8,2.74,3.2,3.2,0,0,1-2.56.93,3.41,3.41,0,0,1-1.73-.38,2.59,2.59,0,0,1-1-1.05,4.6,4.6,0,0,1-.44-1.55,15.55,15.55,0,0,1-.11-1.84c0-.73,0-1.44.07-2.13a5.72,5.72,0,0,1,.4-1.84,2.82,2.82,0,0,1,1-1.28,3.46,3.46,0,0,1,2-.49,4.32,4.32,0,0,1,1.08.14,2.27,2.27,0,0,1,.91.44,2.08,2.08,0,0,1,.64.81,3.1,3.1,0,0,1,.26,1.26h-2A1.7,1.7,0,0,0,395.9,195.34ZM394,201.62a2.28,2.28,0,0,0,.17.65,1.08,1.08,0,0,0,.36.43,1.05,1.05,0,0,0,.59.15,1.1,1.1,0,0,0,.61-.15.94.94,0,0,0,.34-.44,2.29,2.29,0,0,0,.16-.65c0-.25,0-.52,0-.81a3.16,3.16,0,0,0-.27-1.52.94.94,0,0,0-.88-.45,1,1,0,0,0-.9.45,3.31,3.31,0,0,0-.26,1.52C394,201.09,394,201.36,394,201.62Z"/><path class="cls-23" d="M398.93,197.1a5.48,5.48,0,0,1,.4-1.77,2.7,2.7,0,0,1,1-1.23,3.1,3.1,0,0,1,1.82-.47,4,4,0,0,1,1.58.27,2.27,2.27,0,0,1,1,.88,4.14,4.14,0,0,1,.53,1.56,15.33,15.33,0,0,1,.16,2.34c0,.73,0,1.42-.08,2.09a5.9,5.9,0,0,1-.39,1.77,2.72,2.72,0,0,1-1,1.21,3.23,3.23,0,0,1-1.81.44,4.41,4.41,0,0,1-1.57-.25,2.09,2.09,0,0,1-1-.85,4.38,4.38,0,0,1-.53-1.57,15.47,15.47,0,0,1-.15-2.34C398.86,198.46,398.88,197.76,398.93,197.1Zm2.09,4.14a4,4,0,0,0,.19,1,.9.9,0,0,0,.35.49,1.06,1.06,0,0,0,.56.13.88.88,0,0,0,.57-.17,1.12,1.12,0,0,0,.35-.57,5.09,5.09,0,0,0,.17-1.08c0-.45.05-1,.05-1.67v-1.13c0-.66,0-1.19-.05-1.61a3.58,3.58,0,0,0-.18-1,.92.92,0,0,0-.35-.49,1.08,1.08,0,0,0-.56-.14,1,1,0,0,0-.58.17,1.15,1.15,0,0,0-.34.57,5.72,5.72,0,0,0-.18,1.08c0,.45,0,1,0,1.68v1.13C401,200.29,401,200.83,401,201.24Z"/><path class="cls-23" d="M394,232l-.22,2.36h0a1.64,1.64,0,0,1,.76-.59,3,3,0,0,1,1.14-.19,2.42,2.42,0,0,1,1.24.29,2.11,2.11,0,0,1,.78.76,3.21,3.21,0,0,1,.41,1.06,7,7,0,0,1,.11,1.21,8.33,8.33,0,0,1-.14,1.57,3.1,3.1,0,0,1-.53,1.21,2.24,2.24,0,0,1-1,.77,4.49,4.49,0,0,1-1.64.25,4.15,4.15,0,0,1-1.59-.26,2.2,2.2,0,0,1-.93-.7,2.45,2.45,0,0,1-.44-.94,4.7,4.7,0,0,1-.11-.95v-.27h2a5.36,5.36,0,0,0,0,.55,1.65,1.65,0,0,0,.14.55,1.06,1.06,0,0,0,.31.43.86.86,0,0,0,.55.17,1,1,0,0,0,.94-.51,3.17,3.17,0,0,0,.29-1.52,7.85,7.85,0,0,0-.06-1.07,1.77,1.77,0,0,0-.2-.67.8.8,0,0,0-.37-.36,1.45,1.45,0,0,0-.59-.1.94.94,0,0,0-.7.26,1.22,1.22,0,0,0-.3.69H392l.38-5.65h5.42V232Z"/><path class="cls-23" d="M398.93,233.63a5.61,5.61,0,0,1,.4-1.77,2.81,2.81,0,0,1,1-1.23,3.1,3.1,0,0,1,1.82-.46,4,4,0,0,1,1.58.27,2.19,2.19,0,0,1,1,.87,4.2,4.2,0,0,1,.53,1.57,15.33,15.33,0,0,1,.16,2.34c0,.72,0,1.42-.08,2.08a5.76,5.76,0,0,1-.39,1.77,2.67,2.67,0,0,1-1,1.21,3.15,3.15,0,0,1-1.81.44,4.2,4.2,0,0,1-1.57-.25,2,2,0,0,1-1-.85,4.32,4.32,0,0,1-.53-1.56,15.47,15.47,0,0,1-.15-2.34C398.86,235,398.88,234.3,398.93,233.63Zm2.09,4.15a4,4,0,0,0,.19,1,.87.87,0,0,0,.35.49,1.06,1.06,0,0,0,.56.14.94.94,0,0,0,.57-.17,1.21,1.21,0,0,0,.35-.57,5.09,5.09,0,0,0,.17-1.08c0-.45.05-1,.05-1.68v-1.13c0-.65,0-1.19-.05-1.6a3.66,3.66,0,0,0-.18-1,1,1,0,0,0-.35-.49,1.08,1.08,0,0,0-.56-.13.89.89,0,0,0-.58.17,1.11,1.11,0,0,0-.34.57,5.72,5.72,0,0,0-.18,1.08c0,.45,0,1,0,1.67v1.13C401,236.83,401,237.36,401,237.78Z"/><path class="cls-23" d="M395.2,266.7h2.19v6.59h1v1.65h-1v2.16h-1.94v-2.16h-3.7v-1.73Zm.22,2.65-2,3.94h2.05v-3.94Z"/><path class="cls-23" d="M398.93,270.17a5.48,5.48,0,0,1,.4-1.77,2.7,2.7,0,0,1,1-1.23,3.1,3.1,0,0,1,1.82-.47,4,4,0,0,1,1.58.27,2.27,2.27,0,0,1,1,.88,4.14,4.14,0,0,1,.53,1.56,15.33,15.33,0,0,1,.16,2.34c0,.73,0,1.42-.08,2.09a5.9,5.9,0,0,1-.39,1.77,2.72,2.72,0,0,1-1,1.21,3.23,3.23,0,0,1-1.81.44,4.41,4.41,0,0,1-1.57-.25,2.09,2.09,0,0,1-1-.85,4.38,4.38,0,0,1-.53-1.57,15.47,15.47,0,0,1-.15-2.34C398.86,271.53,398.88,270.83,398.93,270.17Zm2.09,4.14a4,4,0,0,0,.19,1,.9.9,0,0,0,.35.49,1.06,1.06,0,0,0,.56.13.88.88,0,0,0,.57-.17,1.12,1.12,0,0,0,.35-.57,5.09,5.09,0,0,0,.17-1.08c0-.45.05-1,.05-1.67V271.3c0-.66,0-1.19-.05-1.61a3.58,3.58,0,0,0-.18-1,.92.92,0,0,0-.35-.49,1.08,1.08,0,0,0-.56-.14,1,1,0,0,0-.58.17,1.15,1.15,0,0,0-.34.57,5.72,5.72,0,0,0-.18,1.08c0,.45,0,1,0,1.68v1.13C401,273.36,401,273.9,401,274.31Z"/><path class="cls-23" d="M394.11,312a.91.91,0,0,0,.92.48,1.22,1.22,0,0,0,.61-.14A.81.81,0,0,0,396,312a1.43,1.43,0,0,0,.16-.53c0-.21,0-.42,0-.65a4.65,4.65,0,0,0-.05-.66,1.67,1.67,0,0,0-.2-.57,1.12,1.12,0,0,0-.41-.4,1.57,1.57,0,0,0-.71-.14h-.7v-1.38h.69a1,1,0,0,0,.93-.51,1.89,1.89,0,0,0,.21-.52A3.11,3.11,0,0,0,396,306a1.65,1.65,0,0,0-.25-1.05.9.9,0,0,0-.76-.31,1.09,1.09,0,0,0-.55.12.89.89,0,0,0-.33.36,1.65,1.65,0,0,0-.16.53c0,.21,0,.43,0,.68H392a2.7,2.7,0,0,1,3.05-3.07,3.38,3.38,0,0,1,2.21.64,2.49,2.49,0,0,1,.79,2,2.57,2.57,0,0,1-.42,1.53,1.85,1.85,0,0,1-1.17.76v0a2,2,0,0,1,1.43.81,3,3,0,0,1,.42,1.64,4.63,4.63,0,0,1-.13,1.09,2.48,2.48,0,0,1-.51,1,2.74,2.74,0,0,1-1.05.73,4.57,4.57,0,0,1-1.76.28,2.9,2.9,0,0,1-2.26-.82,3.35,3.35,0,0,1-.75-2.33v-.05h2A3.51,3.51,0,0,0,394.11,312Z"/><path class="cls-23" d="M398.93,306.7a5.61,5.61,0,0,1,.4-1.77,2.81,2.81,0,0,1,1-1.23,3.1,3.1,0,0,1,1.82-.46,4,4,0,0,1,1.58.27,2.19,2.19,0,0,1,1,.87,4.2,4.2,0,0,1,.53,1.57,15.33,15.33,0,0,1,.16,2.34c0,.72,0,1.42-.08,2.08a5.76,5.76,0,0,1-.39,1.77,2.67,2.67,0,0,1-1,1.21,3.15,3.15,0,0,1-1.81.44,4.2,4.2,0,0,1-1.57-.25,2,2,0,0,1-1-.85,4.32,4.32,0,0,1-.53-1.56,15.47,15.47,0,0,1-.15-2.34C398.86,308.06,398.88,307.37,398.93,306.7Zm2.09,4.15a3.94,3.94,0,0,0,.19,1,.87.87,0,0,0,.35.49,1.06,1.06,0,0,0,.56.14.94.94,0,0,0,.57-.17,1.16,1.16,0,0,0,.35-.57,5.09,5.09,0,0,0,.17-1.08c0-.45.05-1,.05-1.68v-1.13c0-.65,0-1.19-.05-1.6a3.66,3.66,0,0,0-.18-1,1,1,0,0,0-.35-.49,1.08,1.08,0,0,0-.56-.13.89.89,0,0,0-.58.17,1.11,1.11,0,0,0-.34.57,5.72,5.72,0,0,0-.18,1.08c0,.45,0,1,0,1.67v1.13C401,309.9,401,310.43,401,310.85Z"/><path class="cls-23" d="M391.81,350.17a5.86,5.86,0,0,1,.14-1.29,5,5,0,0,1,.43-1.15,5.84,5.84,0,0,1,.72-1.06,10.75,10.75,0,0,1,1-1.05l.85-.8a3.82,3.82,0,0,0,.57-.57,2.56,2.56,0,0,0,.33-.53,1.71,1.71,0,0,0,.15-.57,5,5,0,0,0,0-.7c0-.87-.34-1.3-1-1.3a1,1,0,0,0-.62.17,1,1,0,0,0-.35.44,1.77,1.77,0,0,0-.16.64,6.57,6.57,0,0,0,0,.78h-2v-.4a3,3,0,0,1,.78-2.23,3.35,3.35,0,0,1,2.45-.78,3.28,3.28,0,0,1,2.35.74,2.77,2.77,0,0,1,.76,2.1,5.46,5.46,0,0,1-.08.93,4.06,4.06,0,0,1-.28.83,4.39,4.39,0,0,1-.5.77,7.65,7.65,0,0,1-.75.77L395.37,347a4.21,4.21,0,0,0-.74.83,2.55,2.55,0,0,0-.34.69h3.92v1.65Z"/><path class="cls-23" d="M398.93,343.24a5.48,5.48,0,0,1,.4-1.77,2.76,2.76,0,0,1,1-1.23,3.1,3.1,0,0,1,1.82-.47,3.85,3.85,0,0,1,1.58.28,2.19,2.19,0,0,1,1,.87,4.14,4.14,0,0,1,.53,1.56,15.33,15.33,0,0,1,.16,2.34c0,.73,0,1.42-.08,2.09a5.9,5.9,0,0,1-.39,1.77,2.72,2.72,0,0,1-1,1.21,3.23,3.23,0,0,1-1.81.44,4.41,4.41,0,0,1-1.57-.25,2.09,2.09,0,0,1-1-.85,4.38,4.38,0,0,1-.53-1.57,15.47,15.47,0,0,1-.15-2.34C398.86,344.6,398.88,343.9,398.93,343.24Zm2.09,4.14a4,4,0,0,0,.19,1,.9.9,0,0,0,.35.49,1.06,1.06,0,0,0,.56.13.88.88,0,0,0,.57-.17,1.12,1.12,0,0,0,.35-.57,5.09,5.09,0,0,0,.17-1.08c0-.45.05-1,.05-1.67v-1.13c0-.66,0-1.19-.05-1.61a3.65,3.65,0,0,0-.18-1,.92.92,0,0,0-.35-.49,1.08,1.08,0,0,0-.56-.14,1,1,0,0,0-.58.17,1.19,1.19,0,0,0-.34.58A5.46,5.46,0,0,0,401,343c0,.45,0,1,0,1.68v1.13C401,346.43,401,347,401,347.38Z"/><path class="cls-23" d="M394.22,379.36h-2.07V378h.19a3.08,3.08,0,0,0,1.67-.39,1.87,1.87,0,0,0,.77-1.28h1.55V386.7h-2.11Z"/><path class="cls-23" d="M398.93,379.77a5.61,5.61,0,0,1,.4-1.77,2.81,2.81,0,0,1,1-1.23,3.1,3.1,0,0,1,1.82-.46,4,4,0,0,1,1.58.27,2.19,2.19,0,0,1,1,.87,4.26,4.26,0,0,1,.53,1.57,15.33,15.33,0,0,1,.16,2.34c0,.72,0,1.42-.08,2.08a5.76,5.76,0,0,1-.39,1.77,2.62,2.62,0,0,1-1,1.21,3.15,3.15,0,0,1-1.81.44,4.2,4.2,0,0,1-1.57-.25,2,2,0,0,1-1-.85,4.32,4.32,0,0,1-.53-1.56,15.47,15.47,0,0,1-.15-2.34C398.86,381.13,398.88,380.44,398.93,379.77Zm2.09,4.15a3.94,3.94,0,0,0,.19,1,.93.93,0,0,0,.35.5,1.16,1.16,0,0,0,.56.13.94.94,0,0,0,.57-.17,1.12,1.12,0,0,0,.35-.57,5.09,5.09,0,0,0,.17-1.08c0-.45.05-1,.05-1.68V380.9c0-.65,0-1.19-.05-1.6a3.66,3.66,0,0,0-.18-1,1,1,0,0,0-.35-.49,1.08,1.08,0,0,0-.56-.13,1,1,0,0,0-.58.17,1.11,1.11,0,0,0-.34.57,5.72,5.72,0,0,0-.18,1.08c0,.45,0,1,0,1.67v1.13C401,383,401,383.5,401,383.92Z"/><path class="cls-24" d="M631.58,126.12l1-2.08-3.13-3.1-2.08,1-1.79-1.78,11.94-5.64,1.34,1.34-5.51,12Zm4.1-8.25-4.29,2.1,2.19,2.17Z"/><path class="cls-24" d="M641.65,136.09l-1.44-1.43,3.68-7L637,131.45,635.53,130l6.38-11.15,1.79,1.78-4.14,6.91,7.11-4,1.29,1.28L644.07,132l6.88-4.2,1.79,1.78Z"/><path class="cls-24" d="M649.93,144.29l1-2.07-3.13-3.1-2.08,1-1.8-1.78,11.94-5.64,1.35,1.34-5.51,12ZM654,136l-4.29,2.1,2.19,2.17Z"/><path class="cls-24" d="M657.5,151.79l1.76-5.22L658,145.34l-3.48,3.52-1.72-1.71,8.73-8.81,3.45,3.42a3.74,3.74,0,0,1,.19,5.53,3.33,3.33,0,0,1-3.9.72l-1.79,5.75Zm5.87-8.61-1.62-1.6-2.3,2.32,1.62,1.61a1.64,1.64,0,1,0,2.3-2.33Z"/><path class="cls-24" d="M660.92,155.17l8.73-8.81,5.81,5.75-1.52,1.53-4.09-4-2.05,2.06,3.48,3.45-1.52,1.53-3.48-3.44-2.12,2.14,4.09,4-1.52,1.53Z"/><path class="cls-24" d="M673.63,167.75l1.86-8.86-5.36,5.41-1.72-1.71,8.73-8.81,1.54,1.52-1.85,8.85,5.34-5.39,1.72,1.7-8.73,8.82Z"/><path class="cls-24" d="M677.22,171.31,686,162.5l5.81,5.75-1.52,1.53-4.09-4-2,2.07,3.48,3.44-1.52,1.54-3.48-3.45-2.12,2.14,4.09,4.05L683,177.06Z"/><path class="cls-24" d="M687.07,181.21a5.82,5.82,0,0,1-2.07-4.35h2.22a4,4,0,0,0,1.39,2.85c1,1,1.94,1.16,2.64.46a1.35,1.35,0,0,0,.46-1,1.81,1.81,0,0,0-.47-1.08l-.92-1.2a4.2,4.2,0,0,1-1-2.42,3.27,3.27,0,0,1,1.08-2.36c1.56-1.58,3.82-1.53,5.72.36a5.28,5.28,0,0,1,1.83,3.85h-2.15a3.49,3.49,0,0,0-1.21-2.4,1.65,1.65,0,0,0-2.47-.23,1.17,1.17,0,0,0-.36.89,2.07,2.07,0,0,0,.47,1.15l.89,1.18a4,4,0,0,1,1,2.35,3.44,3.44,0,0,1-1.17,2.54C691.29,183.48,688.91,183,687.07,181.21Z"/><path class="cls-24" d="M694.31,188.39a5.81,5.81,0,0,1-2.06-4.35l2.21,0a4.09,4.09,0,0,0,1.4,2.86c1,1,1.94,1.16,2.64.45a1.41,1.41,0,0,0,.46-1,1.85,1.85,0,0,0-.47-1.08l-.92-1.21a4.19,4.19,0,0,1-1-2.42,3.3,3.3,0,0,1,1.09-2.36c1.56-1.57,3.81-1.52,5.72.37a5.32,5.32,0,0,1,1.83,3.85h-2.16a3.4,3.4,0,0,0-1.21-2.39,1.64,1.64,0,0,0-2.46-.24,1.25,1.25,0,0,0-.37.89,2.23,2.23,0,0,0,.48,1.16l.89,1.18a4.14,4.14,0,0,1,1,2.35,3.47,3.47,0,0,1-1.17,2.54C698.54,190.66,696.16,190.21,694.31,188.39Z"/><path class="cls-24" d="M629.36,726.43l-8.81-8.73,5.75-5.81,1.54,1.52-4.05,4.09,2.07,2,3.44-3.48,1.54,1.52-3.45,3.48,2.14,2.12,4.05-4.09,1.54,1.52Z"/><path class="cls-24" d="M642,713.73l-8.87-1.87,5.41,5.36-1.7,1.72L628,710.21l1.52-1.54,8.86,1.86-5.4-5.35,1.7-1.72,8.82,8.73Z"/><path class="cls-24" d="M650,703.78a4.64,4.64,0,0,1-1.46,3.48,4.53,4.53,0,0,1-3.32,1.42,3.59,3.59,0,0,1-2-.59,23.28,23.28,0,0,1-4.38-4.34,3.5,3.5,0,0,1-.61-2,4.52,4.52,0,0,1,1.39-3.34,4.46,4.46,0,0,1,6.11-.52l-1.72,1.74a2.11,2.11,0,0,0-2.86.3,2,2,0,0,0-.62,1.57c.09.73.31,1.15,2.06,2.88s2.15,2,2.9,2a1.9,1.9,0,0,0,1.55-.65,2.19,2.19,0,0,0,.72-1.71,2.46,2.46,0,0,0-.78-1.57l-.33-.33L645,703.75l-1.44-1.42,3.3-3.33,1.29,1.28A4.93,4.93,0,0,1,650,703.78Z"/><path class="cls-24" d="M658.16,697.36l-2.07-1-3.1,3.13,1,2.08-1.78,1.8L646.6,691.4l1.34-1.35,12,5.51Zm-8.25-4.1,2.11,4.29,2.17-2.19Z"/><path class="cls-24" d="M665.36,688.24a4.61,4.61,0,0,1-1.47,3.48,4.56,4.56,0,0,1-3.32,1.42,3.61,3.61,0,0,1-2-.59,16.52,16.52,0,0,1-2.34-2,17.14,17.14,0,0,1-2.05-2.32,3.57,3.57,0,0,1-.61-2,4.58,4.58,0,0,1,1.39-3.34,4.46,4.46,0,0,1,6.11-.52l-1.72,1.73a2.11,2.11,0,0,0-2.85.31,2,2,0,0,0-.63,1.57c.09.73.32,1.15,2.06,2.87s2.16,2,2.91,2.05a1.94,1.94,0,0,0,1.55-.65,2.28,2.28,0,0,0,.72-1.72,2.43,2.43,0,0,0-.79-1.56l-.33-.33-1.61,1.62-1.43-1.42,3.3-3.33,1.28,1.28A5,5,0,0,1,665.36,688.24Z"/><path class="cls-24" d="M668.71,686.71,659.9,678l5.75-5.8,1.54,1.52-4.05,4.08,2.07,2.05,3.44-3.48,1.54,1.52-3.45,3.48,2.14,2.12,4-4.08,1.53,1.52Z"/><path class="cls-24" d="M682.34,673l-5.14-5.09,1.68,5L677.72,674l-5-1.62,5.14,5.09-1.71,1.72-8.81-8.73,1.68-1.69,7,2.42-2.5-7,1.68-1.69,8.81,8.73Z"/><path class="cls-24" d="M686.08,669.17l-8.81-8.73,5.75-5.81,1.53,1.52-4,4.09,2.07,2,3.44-3.48,1.54,1.52-3.45,3.48,2.14,2.12,4-4.09,1.53,1.53Z"/><path class="cls-24" d="M698.67,656.47l-8.87-1.87,5.41,5.36-1.71,1.72L684.69,653l1.52-1.54,8.86,1.86-5.4-5.35,1.7-1.72,8.82,8.73Z"/><path class="cls-24" d="M698.28,642.3l7.28,7.21-1.7,1.72L696.58,644l-2.28,2.3-1.54-1.52,6.27-6.33,1.53,1.52Z"/><path class="cls-24" d="M93.27,653.92a4.53,4.53,0,0,1-1.42-3.32,3.53,3.53,0,0,1,.59-2,22.94,22.94,0,0,1,4.34-4.39,3.57,3.57,0,0,1,2-.61,4.56,4.56,0,0,1,3.34,1.39,4.38,4.38,0,0,1,.48,6l-1.74-1.73a2,2,0,0,0-.25-2.72,1.92,1.92,0,0,0-1.56-.64c-.74,0-1.2.35-2.89,2.06s-2,2.18-2,2.92a1.94,1.94,0,0,0,.65,1.55,2.05,2.05,0,0,0,2.73.22l1.74,1.73A4.38,4.38,0,0,1,93.27,653.92Z"/><path class="cls-24" d="M103.9,662.54a4.82,4.82,0,0,1-4.77-4.73c0-1.77,1.11-2.85,2.62-4.37s2.57-2.65,4.35-2.66a4.55,4.55,0,0,1,3.34,1.4,4.45,4.45,0,0,1,1.42,3.32c0,1.78-1.09,2.87-2.6,4.39S105.67,662.53,103.9,662.54Zm4.66-7.26a2,2,0,0,0-.64-1.56,2,2,0,0,0-1.58-.63c-.7,0-1.19.36-2.87,2s-2,2.2-2,2.9a2,2,0,0,0,.65,1.57,2,2,0,0,0,1.56.62c.71,0,1.21-.35,2.89-2S108.52,656,108.56,655.28Z"/><path class="cls-24" d="M110.87,671.2l1.86-8.87-5.35,5.41-1.72-1.7,8.73-8.82,1.53,1.52-1.85,8.86,5.34-5.4,1.72,1.71-8.73,8.81Z"/><path class="cls-24" d="M117.67,677.93l-1.29-1.27L122.2,665l1.78,1.77-3.92,7.5,7.47-4,1.79,1.77Z"/><path class="cls-24" d="M121.66,681.88l8.73-8.81,5.81,5.75-1.53,1.54-4.08-4.05-2.05,2.07,3.48,3.44-1.52,1.54L127,679.91l-2.12,2.14L129,686.1l-1.53,1.53Z"/><path class="cls-24" d="M133.83,693.94l1.76-5.22-1.24-1.23L130.87,691l-1.72-1.71,8.73-8.81,3.46,3.42a3.75,3.75,0,0,1,.18,5.53,3.33,3.33,0,0,1-3.9.72l-1.8,5.75Zm5.87-8.61-1.62-1.6-2.3,2.33,1.62,1.6a1.64,1.64,0,1,0,2.3-2.33Z"/><path class="cls-24" d="M139.6,699.8a5.81,5.81,0,0,1-2.06-4.35h2.21a4.07,4.07,0,0,0,1.4,2.85c1,1,1.94,1.16,2.64.46a1.39,1.39,0,0,0,.46-1,1.87,1.87,0,0,0-.47-1.08l-.92-1.2a4.29,4.29,0,0,1-1-2.42,3.28,3.28,0,0,1,1.09-2.36c1.56-1.58,3.81-1.52,5.72.36a5.34,5.34,0,0,1,1.83,3.85h-2.16a3.46,3.46,0,0,0-1.2-2.4,1.65,1.65,0,0,0-2.47-.23,1.17,1.17,0,0,0-.36.89,2.07,2.07,0,0,0,.47,1.15l.89,1.18a4.1,4.1,0,0,1,1,2.35,3.47,3.47,0,0,1-1.17,2.54C143.83,702.07,141.45,701.63,139.6,699.8Z"/><path class="cls-24" d="M144.57,704.57l8.73-8.81,1.72,1.7-8.73,8.82Z"/><path class="cls-24" d="M154.57,712.71A4.82,4.82,0,0,1,149.8,708c0-1.77,1.11-2.85,2.62-4.37S155,701,156.77,701a4.55,4.55,0,0,1,3.34,1.4,4.49,4.49,0,0,1,1.42,3.32c0,1.78-1.09,2.87-2.6,4.39S156.34,712.7,154.57,712.71Zm4.66-7.26a2.17,2.17,0,0,0-2.22-2.19c-.7,0-1.19.36-2.87,2.06s-2,2.19-2,2.89a2.15,2.15,0,0,0,2.21,2.19c.7,0,1.21-.35,2.89-2S159.19,706.15,159.23,705.45Z"/><path class="cls-24" d="M161.54,721.37l1.86-8.87L158,717.91l-1.72-1.7,8.73-8.82,1.54,1.53-1.85,8.85,5.34-5.4,1.72,1.71-8.73,8.81Z"/><path class="cls-24" d="M110.37,183.44l-5.22-1.76-1.22,1.24,3.51,3.48-1.7,1.73-8.82-8.74,3.42-3.45a3.76,3.76,0,0,1,5.54-.19,3.37,3.37,0,0,1,.72,3.91l5.75,1.79Zm-8.6-5.87-1.61,1.62,2.33,2.31,1.61-1.62a1.64,1.64,0,1,0-2.33-2.31Z"/><path class="cls-24" d="M113.76,180l-8.82-8.74,5.75-5.8,1.54,1.52-4,4.08,2.07,2,3.45-3.48,1.53,1.52-3.44,3.48,2.14,2.12,4-4.08,1.54,1.52Z"/><path class="cls-24" d="M117.23,162l7.28,7.21-1.7,1.73-7.28-7.21-2.28,2.3-1.54-1.52,6.27-6.33,1.53,1.52Z"/><path class="cls-24" d="M128.18,165.46l-8.81-8.73,5.75-5.81,1.53,1.52-4,4.09,2.06,2.05,3.45-3.48,1.53,1.52-3.44,3.48,2.14,2.12,4.05-4.09,1.53,1.52Z"/><path class="cls-24" d="M140.76,152.75l-8.87-1.86,5.41,5.36L135.6,158l-8.81-8.73,1.52-1.54,8.85,1.86-5.4-5.35,1.71-1.72,8.81,8.73Z"/><path class="cls-24" d="M140.38,138.58l7.27,7.21-1.7,1.72-7.28-7.21-2.28,2.31-1.54-1.52,6.27-6.33,1.54,1.52Z"/><path class="cls-24" d="M151.32,142.09l-8.81-8.73,1.7-1.72,8.82,8.73Z"/><path class="cls-24" d="M159.46,132.09a4.82,4.82,0,0,1-4.73,4.77c-1.77,0-2.85-1.11-4.37-2.62s-2.65-2.57-2.66-4.35a4.55,4.55,0,0,1,1.4-3.34,4.45,4.45,0,0,1,3.32-1.42c1.78,0,2.87,1.09,4.39,2.6S159.45,130.32,159.46,132.09Zm-7.26-4.66a2.17,2.17,0,0,0-2.19,2.22c0,.7.36,1.19,2.06,2.87s2.18,2,2.89,2a2.17,2.17,0,0,0,2.19-2.21c0-.7-.35-1.21-2-2.89S152.9,127.47,152.2,127.43Z"/><path class="cls-24" d="M168.12,125.12l-8.87-1.87,5.41,5.36-1.7,1.73-8.81-8.74,1.52-1.53,8.85,1.85-5.4-5.34,1.71-1.72,8.81,8.73Z"/></g></svg>