<?xml version="1.0" encoding="utf-8"?>
<!-- Generator: Adobe Illustrator 25.0.0, SVG Export Plug-In . SVG Version: 6.00 Build 0)  -->
<svg version="1.1" id="Layer_1" xmlns="http://www.w3.org/2000/svg" xmlns:xlink="http://www.w3.org/1999/xlink" x="0px" y="0px"
	 viewBox="0 0 800 800" style="enable-background:new 0 0 800 800;" xml:space="preserve">
<style type="text/css">
	.st0{fill:#F4B983;stroke:#F2F2F2;stroke-width:0.5;stroke-miterlimit:10;}
	.st1{fill:#99CAAF;stroke:#F2F2F2;stroke-width:0.5;stroke-miterlimit:10;}
	.st2{fill:#E4C0BE;stroke:#F2F2F2;stroke-width:0.5;stroke-miterlimit:10;}
	.st3{fill:#B2D0EB;stroke:#F2F2F2;stroke-width:0.5;stroke-miterlimit:10;}
	.st4{fill:#D7C7E3;stroke:#F2F2F2;stroke-width:0.5;stroke-miterlimit:10;}
	.st5{fill:#B090C6;stroke:#F2F2F2;stroke-width:0.5;stroke-miterlimit:10;}
	.st6{fill:#F0A25A;stroke:#F2F2F2;stroke-width:0.5;stroke-miterlimit:10;}
	.st7{fill:#77B894;stroke:#F2F2F2;stroke-width:0.5;stroke-miterlimit:10;}
	.st8{fill:#D6A09D;stroke:#F2F2F2;stroke-width:0.5;stroke-miterlimit:10;}
	.st9{fill:#65A1D7;stroke:#F2F2F2;stroke-width:0.5;stroke-miterlimit:10;}
	.st10{fill:#55A679;stroke:#F2F2F2;stroke-width:0.5;stroke-miterlimit:10;}
	.st11{fill:#3F8ACD;stroke:#F2F2F2;stroke-width:0.5;stroke-miterlimit:10;}
	.st12{fill:#EC8B31;stroke:#F2F2F2;stroke-width:0.5;stroke-miterlimit:10;}
	.st13{fill:#BB615C;stroke:#F2F2F2;stroke-width:0.5;stroke-miterlimit:10;}
	.st14{fill:#9C74B8;stroke:#F2F2F2;stroke-width:0.5;stroke-miterlimit:10;}
	.st15{fill:#B16825;stroke:#F2F2F2;stroke-width:0.5;stroke-miterlimit:10;}
	.st16{fill:#75578A;stroke:#F2F2F2;stroke-width:0.5;stroke-miterlimit:10;}
	.st17{fill:#8C4945;stroke:#F2F2F2;stroke-width:0.5;stroke-miterlimit:10;}
	.st18{fill:#2F689A;stroke:#F2F2F2;stroke-width:0.5;stroke-miterlimit:10;}
	.st19{fill:#407D5B;stroke:#F2F2F2;stroke-width:0.5;stroke-miterlimit:10;}
	.st20{fill:#4E3A5C;stroke:#F2F2F2;stroke-width:0.5;stroke-miterlimit:10;}
	.st21{fill:#204567;stroke:#F2F2F2;stroke-width:0.5;stroke-miterlimit:10;}
	.st22{fill:#764619;stroke:#F2F2F2;stroke-width:0.5;stroke-miterlimit:10;}
	.st23{fill:#2B533D;stroke:#F2F2F2;stroke-width:0.5;stroke-miterlimit:10;}
	.st24{fill:#5E312E;stroke:#F2F2F2;stroke-width:0.5;stroke-miterlimit:10;}
	.st25{fill:none;stroke:#F2F2F2;stroke-miterlimit:10;}
	.st26{fill:#FFFFFF;stroke:#FFFFFF;stroke-miterlimit:10;}
	.st27{fill:#4D4D4D;}
	.st28{fill:#666666;}
</style>
<polygon class="st0" points="113.8,583.3 71.4,452.7 85.8,316.1 85.8,316.1 50.9,304.8 34.9,456.5 82.1,601.6 184.2,715 
	205.7,685.3 "/>
<polygon class="st1" points="534.2,116.4 645.3,197.2 714,316.1 748.9,304.8 672.6,172.6 549.1,82.9 399.9,51.2 399.9,87.9 "/>
<polygon class="st2" points="154.4,197.2 265.5,116.4 399.9,87.9 399.9,51.2 250.6,82.9 127.2,172.6 50.9,304.8 85.8,316.1 "/>
<polygon class="st3" points="748.9,304.8 714,316.1 714,316.1 728.3,452.7 685.9,583.3 594,685.3 594,685.4 615.6,715 717.7,601.6 
	764.8,456.5 "/>
<polygon class="st4" points="468.5,741.2 331.2,741.2 205.8,685.3 205.7,685.3 184.2,715 323.6,777.1 476.2,777.1 615.6,715 
	594,685.4 "/>
<polygon class="st4" points="460.9,705.3 338.8,705.3 227.3,655.7 227.2,655.6 205.7,685.3 205.8,685.3 331.2,741.2 468.5,741.2 
	594,685.4 572.4,655.7 "/>
<polygon class="st2" points="181.7,221.7 280.5,150 399.9,124.6 399.9,87.9 265.5,116.4 154.4,197.2 85.8,316.1 120.7,327.4 "/>
<polygon class="st0" points="145.6,565 107.9,448.9 120.7,327.4 120.7,327.4 85.8,316.1 85.8,316.1 71.4,452.7 113.8,583.3 
	205.7,685.3 227.2,655.6 "/>
<polygon class="st1" points="534.2,116.4 399.9,87.9 399.9,124.6 519.3,150 618,221.7 679,327.4 714,316.1 645.3,197.2 "/>
<polygon class="st3" points="679.1,327.4 691.8,448.9 654.1,565 572.4,655.7 572.4,655.7 594,685.4 594,685.3 685.9,583.3 
	728.3,452.7 714,316.1 714,316.1 679,327.4 "/>
<polygon class="st5" points="453.3,669.4 346.5,669.4 248.9,626 248.8,625.9 227.2,655.6 227.3,655.7 338.8,705.3 460.9,705.3 
	572.4,655.7 550.8,626 "/>
<polygon class="st6" points="177.4,546.6 144.4,445 155.6,338.8 155.6,338.8 120.7,327.4 120.7,327.4 107.9,448.9 145.6,565 
	227.2,655.6 248.8,625.9 "/>
<polygon class="st7" points="504.4,183.5 590.8,246.3 644.1,338.7 679,327.4 618,221.7 519.3,150 399.9,124.6 399.9,161.3 "/>
<polygon class="st8" points="181.7,221.7 120.7,327.4 155.6,338.8 209,246.3 295.4,183.5 399.9,161.3 399.9,124.6 280.5,150 "/>
<polygon class="st9" points="644.2,338.8 655.3,445 622.3,546.6 550.9,626 550.8,626 572.4,655.7 572.4,655.7 654.1,565 
	691.8,448.9 679.1,327.4 679,327.4 644.1,338.7 "/>
<polygon class="st7" points="489.4,217 563.5,270.8 609.2,350 644.1,338.7 590.8,246.3 504.4,183.5 399.9,161.3 399.9,198 "/>
<polygon class="st5" points="445.6,633.5 354.1,633.5 270.5,596.3 270.3,596.1 248.8,625.9 248.9,626 346.5,669.4 453.3,669.4 
	550.8,626 529.2,596.3 "/>
<polygon class="st9" points="609.3,350.1 618.8,441.2 590.6,528.2 529.3,596.3 529.2,596.3 550.8,626 550.9,626 622.3,546.6 
	655.3,445 644.2,338.8 644.1,338.7 609.2,350 "/>
<polygon class="st8" points="236.2,270.8 310.3,217 399.9,198 399.9,161.3 295.4,183.5 209,246.3 155.6,338.8 190.5,350.1 "/>
<polygon class="st6" points="144.4,445 177.4,546.6 248.8,625.9 270.3,596.1 209.2,528.2 180.9,441.2 190.5,350.1 190.5,350.1 
	155.6,338.8 155.6,338.8 "/>
<polygon class="st10" points="474.5,250.5 536.2,295.4 574.3,361.3 609.2,350 563.5,270.8 489.4,217 399.9,198 399.9,234.7 "/>
<polygon class="st11" points="574.4,361.5 582.3,437.3 558.8,509.9 507.7,566.6 507.6,566.7 529.2,596.3 529.3,596.3 590.6,528.2 
	618.8,441.2 609.3,350.1 609.2,350 574.3,361.3 "/>
<polygon class="st12" points="241,509.9 217.4,437.3 225.4,361.5 225.4,361.4 190.5,350.1 190.5,350.1 180.9,441.2 209.2,528.2 
	270.3,596.1 291.9,566.4 "/>
<polygon class="st13" points="263.5,295.4 325.2,250.5 399.9,234.7 399.9,198 310.3,217 236.2,270.8 190.5,350.1 225.4,361.4 "/>
<polygon class="st14" points="354.1,633.5 445.6,633.5 529.2,596.3 507.6,566.7 438,597.6 361.7,597.6 292,566.6 291.9,566.4 
	270.3,596.1 270.5,596.3 "/>
<polygon class="st10" points="459.6,284.1 509,319.9 539.4,372.6 574.3,361.3 536.2,295.4 474.5,250.5 399.9,234.7 399.9,271.4 "/>
<polygon class="st13" points="290.8,319.9 340.2,284.1 399.9,271.4 399.9,234.7 325.2,250.5 263.5,295.4 225.4,361.4 260.3,372.8 
	"/>
<polygon class="st14" points="430.4,561.7 369.4,561.7 313.6,536.9 313.4,536.7 291.9,566.4 292,566.6 361.7,597.6 438,597.6 
	507.6,566.7 486,537 "/>
<polygon class="st12" points="272.8,491.5 253.9,433.5 260.3,372.8 260.3,372.8 225.4,361.4 225.4,361.5 217.4,437.3 241,509.9 
	291.9,566.4 313.4,536.7 "/>
<polygon class="st11" points="558.8,509.9 582.3,437.3 574.4,361.5 574.3,361.3 539.4,372.6 539.5,372.8 545.9,433.5 527,491.5 
	486.1,536.9 486,537 507.6,566.7 507.7,566.6 "/>
<polygon class="st15" points="304.5,473.2 290.4,429.7 295.2,384.1 295.2,384.1 260.3,372.8 260.3,372.8 253.9,433.5 272.8,491.5 
	313.4,536.7 334.9,507 "/>
<polygon class="st16" points="422.8,525.8 377,525.8 335.2,507.2 334.9,507 313.4,536.7 313.6,536.9 369.4,561.7 430.4,561.7 
	486,537 464.4,507.3 "/>
<polygon class="st17" points="318.1,344.5 355.1,317.6 399.9,308.1 399.9,271.4 340.2,284.1 290.8,319.9 260.3,372.8 295.2,384.1 
	"/>
<polygon class="st18" points="504.6,384.1 509.4,429.7 495.2,473.2 464.6,507.2 464.4,507.3 486,537 486.1,536.9 527,491.5 
	545.9,433.5 539.5,372.8 539.4,372.6 504.4,383.9 "/>
<polygon class="st19" points="459.6,284.1 399.9,271.4 399.9,308.1 444.6,317.6 481.7,344.5 504.4,383.9 539.4,372.6 509,319.9 "/>
<polygon class="st16" points="415.1,490 384.6,490 356.7,477.5 356.5,477.2 334.9,507 335.2,507.2 377,525.8 422.8,525.8 
	464.4,507.3 442.9,477.6 "/>
<polygon class="st18" points="469.7,395.5 472.9,425.8 463.4,454.9 443,477.5 442.9,477.6 464.4,507.3 464.6,507.2 495.2,473.2 
	509.4,429.7 504.6,384.1 504.4,383.9 469.5,395.2 "/>
<polygon class="st15" points="336.3,454.9 326.9,425.8 330.1,395.5 330.1,395.4 295.2,384.1 295.2,384.1 290.4,429.7 304.5,473.2 
	334.9,507 356.5,477.2 "/>
<polygon class="st19" points="429.7,351.1 454.4,369 469.5,395.2 504.4,383.9 481.7,344.5 444.6,317.6 399.9,308.1 399.9,344.8 "/>
<polygon class="st17" points="318.1,344.5 295.2,384.1 330.1,395.4 345.3,369 370,351.1 399.9,344.8 399.9,308.1 355.1,317.6 "/>
<polygon class="st20" points="407.5,454 392.2,454 378.3,447.9 378,447.5 356.5,477.2 356.7,477.5 384.6,490 415.1,490 442.9,477.6 
	421.2,447.9 "/>
<polygon class="st21" points="434.8,406.8 436.4,422 431.6,436.5 421.4,447.9 421.2,447.9 442.9,477.6 443,477.5 463.4,454.9 
	472.9,425.8 469.7,395.5 469.5,395.2 434.6,406.5 "/>
<polygon class="st22" points="326.9,425.8 336.3,454.9 356.5,477.2 378,447.5 368.1,436.5 363.4,422 365,406.8 365,406.7 
	330.1,395.4 330.1,395.5 "/>
<polygon class="st23" points="414.8,384.6 427.1,393.6 434.6,406.5 469.5,395.2 454.4,369 429.7,351.1 399.9,344.8 399.9,381.5 "/>
<polygon class="st24" points="372.6,393.6 385,384.6 399.9,381.5 399.9,344.8 370,351.1 345.3,369 330.1,395.4 365,406.7 "/>
<polygon class="st20" points="392.2,454 407.5,454 421.2,447.9 399.4,417.9 378,447.5 378.3,447.9 "/>
<polygon class="st21" points="399.9,417.9 399.9,417.8 399.4,417.9 421.2,447.9 421.4,447.9 431.6,436.5 436.4,422 434.8,406.8 
	434.6,406.5 399.9,417.8 "/>
<polygon class="st23" points="434.6,406.5 427.1,393.6 414.8,384.6 399.9,381.5 399.9,417.8 "/>
<polygon class="st24" points="399.9,417.8 399.9,381.5 385,384.6 372.6,393.6 365,406.7 399.4,417.9 "/>
<polygon class="st22" points="365,406.7 365,406.8 363.4,422 368.1,436.5 378,447.5 399.4,417.9 "/>
<line class="st25" x1="250.6" y1="82.9" x2="399.4" y2="417.9"/>
<line class="st25" x1="549.1" y1="82.9" x2="399.4" y2="417.9"/>
<line class="st25" x1="672.6" y1="172.6" x2="399.4" y2="417.9"/>
<line class="st25" x1="748.9" y1="304.8" x2="399.4" y2="417.9"/>
<line class="st25" x1="764.8" y1="456.5" x2="399.4" y2="417.9"/>
<line class="st25" x1="717.7" y1="601.6" x2="399.4" y2="417.9"/>
<line class="st25" x1="615.6" y1="715" x2="399.4" y2="417.9"/>
<line class="st25" x1="476.2" y1="777.1" x2="399.4" y2="417.9"/>
<line class="st25" x1="323.6" y1="777.1" x2="399.4" y2="417.9"/>
<line class="st25" x1="184.2" y1="715" x2="399.4" y2="417.9"/>
<line class="st25" x1="82.1" y1="601.6" x2="399.4" y2="417.9"/>
<line class="st25" x1="34.9" y1="456.5" x2="399.4" y2="417.9"/>
<line class="st25" x1="50.9" y1="304.8" x2="399.4" y2="417.9"/>
<line class="st25" x1="127.2" y1="172.6" x2="399.4" y2="417.9"/>
<line class="st25" x1="399.9" y1="51.2" x2="399.9" y2="417.9"/>
<line class="st25" x1="615.6" y1="715" x2="399.4" y2="417.9"/>
<rect x="386.5" y="80.7" class="st26" width="24.3" height="18.1"/>
<rect x="386.5" y="44.3" class="st26" width="24.3" height="18.1"/>
<rect x="386.5" y="117.2" class="st26" width="24.3" height="18.1"/>
<rect x="386.5" y="153.6" class="st26" width="24.3" height="18.1"/>
<rect x="386.5" y="190.1" class="st26" width="24.3" height="18.1"/>
<rect x="386.5" y="226.5" class="st26" width="24.3" height="18.1"/>
<rect x="386.5" y="263" class="st26" width="24.3" height="18.1"/>
<rect x="386.5" y="299.4" class="st26" width="24.3" height="18.1"/>
<rect x="386.5" y="335.9" class="st26" width="24.3" height="18.1"/>
<rect x="386.5" y="372.3" class="st26" width="24.3" height="18.1"/>
<g>
	<path class="st27" d="M391.7,57.9v-6.7h-2.6v-1.6c0.4,0,0.7,0,1-0.1c0.3-0.1,0.6-0.2,0.9-0.3c0.3-0.2,0.5-0.4,0.7-0.6
		c0.2-0.3,0.3-0.6,0.4-1h1.7v10.3H391.7z"/>
	<path class="st27" d="M396.8,50.2c0.2-0.6,0.4-1.2,0.8-1.6c0.3-0.4,0.7-0.7,1.2-0.9c0.9-0.3,2-0.3,2.9,0c0.5,0.2,0.9,0.5,1.2,0.9
		c0.4,0.5,0.7,1,0.8,1.6c0.2,0.8,0.3,1.7,0.3,2.5c0,0.9-0.1,1.7-0.3,2.6c-0.2,0.6-0.4,1.2-0.8,1.7c-0.3,0.4-0.7,0.7-1.2,0.9
		c-0.9,0.3-2,0.3-2.9,0c-0.5-0.2-0.9-0.5-1.2-0.9c-0.4-0.5-0.7-1.1-0.8-1.7c-0.2-0.8-0.3-1.7-0.3-2.6
		C396.5,51.9,396.6,51,396.8,50.2z M398.6,53.8c0,0.4,0.1,0.8,0.2,1.2c0.1,0.4,0.3,0.7,0.5,1c0.2,0.3,0.6,0.4,1,0.4
		c0.4,0,0.7-0.1,1-0.4c0.2-0.3,0.4-0.6,0.5-1c0.1-0.4,0.2-0.8,0.2-1.2c0-0.4,0-0.8,0-1.1s0-0.4,0-0.6c0-0.3,0-0.5-0.1-0.8
		c0-0.3-0.1-0.5-0.1-0.8c-0.1-0.2-0.2-0.5-0.3-0.7c-0.1-0.2-0.3-0.4-0.5-0.5c-0.2-0.1-0.5-0.2-0.7-0.2c-0.3,0-0.5,0.1-0.7,0.2
		c-0.2,0.1-0.4,0.3-0.5,0.5c-0.1,0.2-0.2,0.4-0.3,0.7c-0.1,0.3-0.1,0.5-0.1,0.8c0,0.3,0,0.5,0,0.8s0,0.5,0,0.6
		S398.6,53.3,398.6,53.8z"/>
	<path class="st27" d="M405,50.2c0.2-0.6,0.4-1.2,0.8-1.6c0.3-0.4,0.7-0.7,1.2-0.9c0.9-0.3,2-0.3,2.9,0c0.5,0.2,0.9,0.5,1.2,0.9
		c0.4,0.5,0.7,1,0.8,1.6c0.2,0.8,0.3,1.7,0.3,2.5c0,0.9-0.1,1.7-0.3,2.6c-0.2,0.6-0.4,1.2-0.8,1.7c-0.3,0.4-0.7,0.7-1.2,0.9
		c-0.9,0.3-2,0.3-2.9,0c-0.5-0.2-0.9-0.5-1.2-0.9c-0.4-0.5-0.7-1.1-0.8-1.7c-0.2-0.8-0.3-1.7-0.3-2.6C404.7,51.9,404.8,51,405,50.2z
		 M406.8,53.8c0,0.4,0.1,0.8,0.2,1.2c0.1,0.4,0.3,0.7,0.5,1c0.2,0.3,0.6,0.4,1,0.4c0.4,0,0.7-0.1,1-0.4c0.2-0.3,0.4-0.6,0.5-1
		c0.1-0.4,0.2-0.8,0.2-1.2c0-0.4,0-0.8,0-1.1s0-0.4,0-0.6c0-0.3,0-0.5,0-0.8c0-0.3-0.1-0.5-0.1-0.8c-0.1-0.2-0.2-0.5-0.3-0.7
		c-0.1-0.2-0.3-0.4-0.5-0.5c-0.2-0.1-0.5-0.2-0.7-0.2c-0.3,0-0.5,0.1-0.7,0.2c-0.2,0.1-0.4,0.3-0.5,0.5c-0.1,0.2-0.2,0.4-0.3,0.7
		c-0.1,0.3-0.1,0.5-0.1,0.8c0,0.3,0,0.5,0,0.8v0.6C406.8,53,406.8,53.3,406.8,53.8L406.8,53.8z"/>
</g>
<g>
	<path class="st27" d="M394.5,92.7c0.2,0.3,0.6,0.4,0.9,0.4c0.3,0,0.7-0.1,0.9-0.3c0.3-0.2,0.5-0.5,0.6-0.8c0.1-0.3,0.3-0.7,0.3-1
		c0.1-0.4,0.1-0.7,0.1-1l0,0c-0.2,0.4-0.6,0.7-1,0.9c-0.4,0.2-0.9,0.2-1.4,0.2c-0.4,0-0.9-0.1-1.3-0.3c-0.4-0.2-0.8-0.4-1.1-0.8
		c-0.3-0.3-0.5-0.7-0.6-1.1c-0.1-0.4-0.2-0.8-0.2-1.2c0-0.5,0.1-1,0.2-1.5c0.3-0.9,1-1.6,1.9-2c0.5-0.2,1-0.3,1.5-0.3
		c0.7,0,1.3,0.1,1.9,0.5c0.5,0.3,0.9,0.7,1.2,1.2c0.3,0.5,0.5,1.1,0.6,1.7c0.1,0.6,0.2,1.3,0.2,1.9c0,0.6-0.1,1.3-0.2,1.9
		c-0.1,0.6-0.4,1.2-0.7,1.7c-0.3,0.5-0.7,0.9-1.2,1.2c-0.6,0.3-1.2,0.5-1.9,0.5c-0.4,0-0.8-0.1-1.2-0.2c-0.7-0.2-1.3-0.7-1.7-1.4
		c-0.2-0.4-0.3-0.8-0.4-1.2h2C394.1,92.1,394.3,92.4,394.5,92.7z M396.2,89.3c0.2-0.1,0.4-0.2,0.5-0.4c0.1-0.2,0.2-0.4,0.3-0.6
		c0.1-0.2,0.1-0.5,0.1-0.7c0-0.2,0-0.5-0.1-0.7c-0.1-0.2-0.2-0.4-0.3-0.6c-0.1-0.2-0.3-0.3-0.5-0.4c-0.2-0.1-0.5-0.2-0.7-0.2
		c-0.2,0-0.5,0.1-0.7,0.2c-0.4,0.2-0.7,0.6-0.8,1c-0.1,0.2-0.1,0.5-0.1,0.7c0,0.2,0,0.5,0.1,0.7c0.1,0.2,0.2,0.4,0.3,0.6
		c0.1,0.2,0.3,0.3,0.5,0.4c0.2,0.1,0.4,0.2,0.7,0.2C395.8,89.5,396,89.4,396.2,89.3z"/>
	<path class="st27" d="M400.3,86.7c0.2-0.6,0.4-1.2,0.8-1.6c0.3-0.4,0.7-0.7,1.2-0.9c0.9-0.3,2-0.3,2.9,0c0.5,0.2,0.9,0.5,1.2,0.9
		c0.4,0.5,0.7,1,0.8,1.6c0.2,0.8,0.3,1.7,0.3,2.5c0,0.9-0.1,1.7-0.3,2.6c-0.2,0.6-0.4,1.2-0.8,1.7c-0.3,0.4-0.7,0.7-1.2,0.9
		c-0.9,0.3-2,0.3-2.9,0c-0.5-0.2-0.9-0.5-1.2-0.9c-0.4-0.5-0.7-1.1-0.8-1.7c-0.2-0.8-0.3-1.7-0.3-2.6
		C400,88.4,400.1,87.5,400.3,86.7z M402.1,90.3c0,0.4,0.1,0.8,0.2,1.2c0.1,0.4,0.3,0.7,0.5,1c0.2,0.3,0.6,0.4,1,0.4
		c0.4,0,0.7-0.1,1-0.4c0.2-0.3,0.4-0.6,0.5-1c0.1-0.4,0.2-0.8,0.2-1.2c0-0.4,0-0.8,0-1.1s0-0.4,0-0.6c0-0.3,0-0.5-0.1-0.8
		c0-0.3-0.1-0.5-0.1-0.8c-0.1-0.2-0.2-0.5-0.3-0.7c-0.1-0.2-0.3-0.4-0.5-0.5c-0.2-0.1-0.5-0.2-0.7-0.2c-0.3,0-0.5,0.1-0.7,0.2
		c-0.2,0.1-0.4,0.3-0.5,0.5c-0.1,0.2-0.2,0.4-0.3,0.7c-0.1,0.3-0.1,0.5-0.1,0.8c0,0.3,0,0.5,0,0.8s0,0.5,0,0.6
		S402.1,89.9,402.1,90.3z"/>
</g>
<g>
	<path class="st27" d="M392.5,122.1c0.2-0.3,0.5-0.6,0.8-0.9c0.3-0.2,0.7-0.4,1.1-0.5c0.4-0.1,0.8-0.2,1.2-0.2
		c0.6,0,1.1,0.1,1.6,0.3c0.4,0.2,0.8,0.4,1.1,0.7c0.3,0.2,0.5,0.6,0.6,0.9c0.1,0.3,0.2,0.6,0.2,0.9c0,0.5-0.1,0.9-0.4,1.3
		c-0.3,0.4-0.7,0.7-1.1,0.8l0,0c0.6,0.1,1.1,0.4,1.4,0.9c0.3,0.5,0.5,1.1,0.5,1.6c0,0.5-0.1,1-0.3,1.4c-0.2,0.4-0.5,0.7-0.9,1
		c-0.4,0.3-0.8,0.5-1.2,0.6c-0.5,0.1-0.9,0.2-1.4,0.2c-0.5,0-1-0.1-1.5-0.2c-0.4-0.1-0.9-0.3-1.2-0.6c-0.4-0.3-0.7-0.6-0.9-1
		c-0.2-0.4-0.3-0.9-0.3-1.4c0-0.6,0.2-1.2,0.5-1.6c0.4-0.5,0.9-0.8,1.4-0.9l0,0c-0.5-0.1-0.9-0.4-1.1-0.8c-0.3-0.4-0.4-0.9-0.4-1.3
		C392.2,122.9,392.3,122.4,392.5,122.1z M394,128.6c0.1,0.2,0.2,0.4,0.4,0.6c0.2,0.2,0.4,0.3,0.6,0.4c0.2,0.1,0.5,0.1,0.7,0.1
		c0.2,0,0.5,0,0.7-0.1c0.2-0.1,0.4-0.2,0.6-0.4c0.2-0.2,0.3-0.3,0.4-0.6c0.1-0.2,0.1-0.5,0.1-0.7c0-0.2,0-0.5-0.1-0.7
		c-0.1-0.2-0.2-0.4-0.4-0.5c-0.2-0.1-0.4-0.3-0.6-0.3c-0.2-0.1-0.4-0.1-0.7-0.1c-0.5,0-0.9,0.1-1.3,0.4c-0.4,0.3-0.6,0.7-0.5,1.2
		C393.8,128.1,393.9,128.3,394,128.6L394,128.6z M394.5,124.5c0.3,0.2,0.7,0.4,1.1,0.3c0.4,0,0.8-0.1,1.1-0.3c0.3-0.2,0.5-0.6,0.4-1
		c0-0.1,0-0.3-0.1-0.4c0-0.2-0.1-0.3-0.2-0.5c-0.1-0.2-0.3-0.3-0.5-0.4c-0.2-0.1-0.5-0.2-0.8-0.2c-0.2,0-0.4,0-0.6,0.1
		c-0.2,0.1-0.4,0.1-0.5,0.3c-0.1,0.1-0.3,0.3-0.3,0.4c-0.1,0.2-0.1,0.4-0.1,0.6C394.1,123.9,394.2,124.2,394.5,124.5L394.5,124.5z"
		/>
	<path class="st27" d="M400.3,123.3c0.2-0.6,0.4-1.2,0.8-1.6c0.3-0.4,0.7-0.7,1.2-0.9c0.9-0.3,2-0.3,2.9,0c0.5,0.2,0.9,0.5,1.2,0.9
		c0.4,0.5,0.7,1,0.8,1.6c0.2,0.8,0.3,1.7,0.3,2.5c0,0.9-0.1,1.7-0.3,2.6c-0.2,0.6-0.4,1.2-0.8,1.7c-0.3,0.4-0.7,0.7-1.2,0.9
		c-0.9,0.3-2,0.3-2.9,0c-0.5-0.2-0.9-0.5-1.2-0.9c-0.4-0.5-0.7-1.1-0.8-1.7c-0.2-0.8-0.3-1.7-0.3-2.6
		C400,124.9,400.1,124.1,400.3,123.3z M402.1,126.8c0,0.4,0.1,0.8,0.2,1.2c0.1,0.4,0.3,0.7,0.5,1c0.2,0.3,0.6,0.4,1,0.4
		c0.4,0,0.7-0.1,1-0.4c0.2-0.3,0.4-0.6,0.5-1c0.1-0.4,0.2-0.8,0.2-1.2c0-0.4,0-0.8,0-1.1s0-0.4,0-0.6c0-0.3,0-0.5-0.1-0.8
		c0-0.3-0.1-0.5-0.1-0.8c-0.1-0.2-0.2-0.5-0.3-0.7c-0.1-0.2-0.3-0.4-0.5-0.5c-0.2-0.1-0.5-0.2-0.7-0.2c-0.3,0-0.5,0.1-0.7,0.2
		c-0.2,0.1-0.4,0.3-0.5,0.5c-0.1,0.2-0.2,0.4-0.3,0.7c-0.1,0.3-0.1,0.5-0.1,0.8c0,0.3,0,0.5,0,0.8s0,0.5,0,0.6
		S402.1,126.4,402.1,126.8z"/>
</g>
<g>
	<path class="st27" d="M397.7,160.7c-0.4,0.7-0.7,1.4-1,2.2c-0.3,0.8-0.5,1.6-0.6,2.4c-0.1,0.7-0.2,1.5-0.2,2.2h-2.2
		c0.1-1.5,0.5-3,1.1-4.4c0.6-1.4,1.4-2.7,2.4-3.9h-4.9v-1.9h7v1.8C398.6,159.5,398.1,160.1,397.7,160.7z"/>
	<path class="st27" d="M400.3,159.8c0.2-0.6,0.4-1.2,0.8-1.6c0.3-0.4,0.7-0.7,1.2-0.9c0.9-0.3,2-0.3,2.9,0c0.5,0.2,0.9,0.5,1.2,0.9
		c0.4,0.5,0.7,1,0.8,1.6c0.2,0.8,0.3,1.7,0.3,2.5c0,0.9-0.1,1.7-0.3,2.6c-0.2,0.6-0.4,1.2-0.8,1.7c-0.3,0.4-0.7,0.7-1.2,0.9
		c-0.9,0.3-2,0.3-2.9,0c-0.5-0.2-0.9-0.5-1.2-0.9c-0.4-0.5-0.7-1.1-0.8-1.7c-0.2-0.8-0.3-1.7-0.3-2.6
		C400,161.5,400.1,160.6,400.3,159.8z M402.1,163.4c0,0.4,0.1,0.8,0.2,1.2c0.1,0.4,0.3,0.7,0.5,1c0.2,0.3,0.6,0.4,1,0.4
		c0.4,0,0.7-0.1,1-0.4c0.2-0.3,0.4-0.6,0.5-1c0.1-0.4,0.2-0.8,0.2-1.2c0-0.4,0-0.8,0-1.1s0-0.4,0-0.6c0-0.3,0-0.5-0.1-0.8
		c0-0.3-0.1-0.5-0.1-0.8c-0.1-0.2-0.2-0.5-0.3-0.7c-0.1-0.2-0.3-0.4-0.5-0.5c-0.2-0.1-0.5-0.2-0.7-0.2c-0.3,0-0.5,0.1-0.7,0.2
		c-0.2,0.1-0.4,0.3-0.5,0.5c-0.1,0.2-0.2,0.4-0.3,0.7c-0.1,0.3-0.1,0.5-0.1,0.8c0,0.3,0,0.5,0,0.8s0,0.5,0,0.6
		S402.1,163,402.1,163.4z"/>
</g>
<g>
	<path class="st27" d="M396.8,195.5c-0.2-0.2-0.6-0.4-0.9-0.4c-0.3,0-0.7,0.1-0.9,0.3c-0.3,0.2-0.5,0.5-0.6,0.8
		c-0.2,0.3-0.3,0.7-0.3,1c-0.1,0.3-0.1,0.7-0.1,1l0,0c0.2-0.4,0.6-0.7,1-0.9c0.4-0.2,0.9-0.3,1.3-0.3c0.4,0,0.9,0.1,1.3,0.3
		c0.4,0.2,0.8,0.4,1.1,0.8c0.3,0.3,0.5,0.7,0.6,1.1c0.1,0.4,0.2,0.8,0.2,1.2c0,0.5-0.1,1-0.2,1.5c-0.2,0.4-0.4,0.8-0.7,1.2
		c-0.3,0.3-0.7,0.6-1.1,0.8c-0.5,0.2-1,0.3-1.5,0.3c-0.7,0-1.3-0.1-1.9-0.5c-0.5-0.3-0.9-0.7-1.2-1.2c-0.3-0.5-0.5-1.1-0.6-1.7
		c-0.1-0.6-0.2-1.3-0.2-1.9c0-0.6,0.1-1.3,0.2-1.9c0.1-0.6,0.4-1.2,0.7-1.7c0.3-0.5,0.7-0.9,1.2-1.3c0.6-0.3,1.2-0.5,1.9-0.5
		c0.4,0,0.8,0.1,1.2,0.2c0.4,0.1,0.7,0.3,1,0.6c0.3,0.2,0.5,0.5,0.7,0.9c0.2,0.4,0.3,0.8,0.4,1.2h-2
		C397.1,196,397,195.7,396.8,195.5z M395,198.9c-0.2,0.1-0.4,0.2-0.5,0.4c-0.1,0.2-0.2,0.4-0.3,0.6c-0.1,0.2-0.1,0.5-0.1,0.7
		c0,0.2,0,0.5,0.1,0.7c0.1,0.2,0.2,0.4,0.3,0.6c0.1,0.2,0.3,0.3,0.5,0.4c0.2,0.1,0.5,0.2,0.7,0.2c0.2,0,0.5-0.1,0.7-0.2
		c0.2-0.1,0.4-0.3,0.5-0.4c0.1-0.2,0.2-0.4,0.3-0.6c0.1-0.2,0.1-0.5,0.1-0.7c0-0.2,0-0.5-0.1-0.7c-0.1-0.2-0.2-0.4-0.3-0.6
		c-0.3-0.4-0.7-0.6-1.2-0.6C395.5,198.7,395.2,198.7,395,198.9z"/>
	<path class="st27" d="M400.3,196.3c0.2-0.6,0.4-1.2,0.8-1.6c0.3-0.4,0.7-0.7,1.2-0.9c0.9-0.3,2-0.3,2.9,0c0.5,0.2,0.9,0.5,1.2,0.9
		c0.4,0.5,0.7,1,0.8,1.6c0.2,0.8,0.3,1.7,0.3,2.5c0,0.9-0.1,1.7-0.3,2.6c-0.2,0.6-0.4,1.2-0.8,1.7c-0.3,0.4-0.7,0.7-1.2,0.9
		c-0.9,0.3-2,0.3-2.9,0c-0.5-0.2-0.9-0.5-1.2-0.9c-0.4-0.5-0.7-1.1-0.8-1.7c-0.2-0.8-0.3-1.7-0.3-2.6
		C400,198,400.1,197.2,400.3,196.3z M402.1,199.9c0,0.4,0.1,0.8,0.2,1.2c0.1,0.4,0.3,0.7,0.5,1c0.2,0.3,0.6,0.4,1,0.4
		c0.4,0,0.7-0.1,1-0.4c0.2-0.3,0.4-0.6,0.5-1c0.1-0.4,0.2-0.8,0.2-1.2c0-0.4,0-0.8,0-1.1s0-0.4,0-0.6c0-0.3,0-0.5-0.1-0.8
		c0-0.3-0.1-0.5-0.1-0.8c-0.1-0.2-0.2-0.4-0.3-0.7c-0.1-0.2-0.3-0.4-0.5-0.5c-0.2-0.1-0.5-0.2-0.7-0.2c-0.3,0-0.5,0.1-0.7,0.2
		c-0.2,0.1-0.4,0.3-0.5,0.5c-0.1,0.2-0.2,0.4-0.3,0.7c-0.1,0.3-0.1,0.5-0.1,0.8c0,0.3,0,0.5,0,0.8s0,0.5,0,0.6
		S402.1,199.5,402.1,199.9z"/>
</g>
<g>
	<path class="st27" d="M394.6,232l-0.4,2.3l0,0c0.3-0.3,0.6-0.5,0.9-0.6c0.4-0.1,0.7-0.2,1.1-0.2c0.5,0,0.9,0.1,1.4,0.3
		c0.4,0.2,0.7,0.4,1,0.8c0.3,0.3,0.5,0.7,0.6,1.1c0.2,0.4,0.2,0.9,0.2,1.4c0,0.5-0.1,1-0.3,1.5c-0.2,0.4-0.5,0.8-0.8,1.2
		c-0.3,0.3-0.8,0.6-1.2,0.8c-0.5,0.2-1,0.3-1.5,0.3c-0.5,0-1-0.1-1.4-0.2c-0.4-0.1-0.9-0.3-1.2-0.6c-0.4-0.3-0.6-0.6-0.9-1
		c-0.2-0.4-0.3-0.9-0.3-1.4h2.1c0,0.4,0.2,0.8,0.5,1.1c0.5,0.4,1.3,0.5,1.9,0.2c0.2-0.1,0.4-0.3,0.6-0.4c0.2-0.2,0.3-0.4,0.4-0.6
		c0.1-0.2,0.1-0.5,0.1-0.7c0-0.3,0-0.5-0.1-0.8c-0.1-0.2-0.2-0.4-0.4-0.6c-0.2-0.2-0.3-0.3-0.6-0.4c-0.2-0.1-0.5-0.2-0.7-0.1
		c-0.3,0-0.6,0.1-0.9,0.2c-0.3,0.2-0.5,0.4-0.7,0.6h-1.9l1-5.7h5.7v1.7H394.6z"/>
	<path class="st27" d="M400.3,232.9c0.2-0.6,0.4-1.2,0.8-1.6c0.3-0.4,0.7-0.7,1.2-0.9c0.9-0.3,2-0.3,2.9,0c0.5,0.2,0.9,0.5,1.2,0.9
		c0.4,0.5,0.7,1,0.8,1.6c0.2,0.8,0.3,1.7,0.3,2.5c0,0.9-0.1,1.7-0.3,2.6c-0.2,0.6-0.4,1.2-0.8,1.7c-0.3,0.4-0.7,0.7-1.2,0.9
		c-0.9,0.3-2,0.3-2.9,0c-0.5-0.2-0.9-0.5-1.2-0.9c-0.4-0.5-0.7-1.1-0.8-1.7c-0.2-0.8-0.3-1.7-0.3-2.6
		C400,234.5,400.1,233.7,400.3,232.9z M402.1,236.4c0,0.4,0.1,0.8,0.2,1.2c0.1,0.4,0.3,0.7,0.5,1c0.2,0.3,0.6,0.4,1,0.4
		c0.4,0,0.7-0.1,1-0.4c0.2-0.3,0.4-0.6,0.5-1c0.1-0.4,0.2-0.8,0.2-1.2c0-0.4,0-0.8,0-1.1s0-0.4,0-0.6c0-0.3,0-0.5-0.1-0.8
		c0-0.3-0.1-0.5-0.1-0.8c-0.1-0.2-0.2-0.5-0.3-0.7c-0.1-0.2-0.3-0.4-0.5-0.5c-0.2-0.1-0.5-0.2-0.7-0.2c-0.3,0-0.5,0.1-0.7,0.2
		c-0.2,0.1-0.4,0.3-0.5,0.5c-0.1,0.2-0.2,0.4-0.3,0.7c-0.1,0.3-0.1,0.5-0.1,0.8c0,0.3,0,0.5,0,0.8s0,0.5,0,0.6
		S402.1,236,402.1,236.4z"/>
</g>
<g>
	<path class="st27" d="M391.8,274.7v-1.9l4.5-6h1.9v6.2h1.4v1.7h-1.4v2.4h-2v-2.4H391.8z M396.1,269.4l-2.7,3.6h2.7L396.1,269.4
		L396.1,269.4z"/>
	<path class="st27" d="M400.3,269.4c0.2-0.6,0.4-1.2,0.8-1.6c0.3-0.4,0.7-0.7,1.2-0.9c0.9-0.3,2-0.3,2.9,0c0.5,0.2,0.9,0.5,1.2,0.9
		c0.4,0.5,0.7,1,0.8,1.6c0.2,0.8,0.3,1.7,0.3,2.5c0,0.9-0.1,1.7-0.3,2.6c-0.2,0.6-0.4,1.2-0.8,1.7c-0.3,0.4-0.7,0.7-1.2,0.9
		c-0.9,0.3-2,0.3-2.9,0c-0.5-0.2-0.9-0.5-1.2-0.9c-0.4-0.5-0.7-1.1-0.8-1.7c-0.2-0.8-0.3-1.7-0.3-2.6
		C400,271.1,400.1,270.2,400.3,269.4z M402.1,273c0,0.4,0.1,0.8,0.2,1.2c0.1,0.4,0.3,0.7,0.5,1c0.2,0.3,0.6,0.4,1,0.4
		c0.4,0,0.7-0.1,1-0.4c0.2-0.3,0.4-0.6,0.5-1c0.1-0.4,0.2-0.8,0.2-1.2c0-0.4,0-0.8,0-1.1s0-0.4,0-0.6c0-0.3,0-0.5-0.1-0.8
		c0-0.3-0.1-0.5-0.1-0.8c-0.1-0.3-0.2-0.5-0.3-0.7c-0.1-0.2-0.3-0.4-0.5-0.5c-0.2-0.1-0.5-0.2-0.7-0.2c-0.3,0-0.5,0.1-0.7,0.2
		c-0.2,0.1-0.4,0.3-0.5,0.5c-0.1,0.2-0.2,0.4-0.3,0.7c-0.1,0.3-0.1,0.5-0.1,0.8c0,0.3,0,0.5,0,0.8s0,0.5,0,0.6
		S402.1,272.6,402.1,273L402.1,273z"/>
</g>
<g>
	<path class="st27" d="M395.6,307.5c0.2,0,0.5-0.1,0.7-0.2c0.2-0.1,0.4-0.2,0.5-0.4c0.1-0.2,0.2-0.5,0.2-0.7c0-0.4-0.1-0.8-0.4-1
		c-0.3-0.2-0.6-0.4-1-0.4c-0.5,0-0.9,0.2-1.2,0.5c-0.3,0.4-0.4,0.8-0.4,1.3h-2c0-0.5,0.1-1,0.3-1.4c0.2-0.4,0.4-0.8,0.7-1.1
		c0.3-0.3,0.7-0.6,1.1-0.7c0.5-0.2,0.9-0.3,1.4-0.3c0.4,0,0.8,0.1,1.2,0.2c0.4,0.1,0.8,0.3,1.1,0.5c0.3,0.2,0.6,0.6,0.8,0.9
		c0.4,0.8,0.4,1.8,0,2.5c-0.2,0.4-0.6,0.7-1.1,0.8l0,0c0.6,0.1,1,0.4,1.4,0.9c0.3,0.4,0.5,1,0.5,1.5c0,0.5-0.1,1-0.3,1.4
		c-0.2,0.4-0.5,0.8-0.8,1.1c-0.4,0.3-0.8,0.5-1.2,0.6c-0.5,0.1-1,0.2-1.4,0.2c-0.5,0-1.1-0.1-1.6-0.2c-0.5-0.2-0.9-0.4-1.2-0.7
		c-0.3-0.3-0.6-0.7-0.8-1.2c-0.2-0.5-0.3-1-0.3-1.6h2c0,0.3,0.1,0.5,0.1,0.8c0.1,0.2,0.2,0.5,0.3,0.6c0.1,0.2,0.3,0.3,0.5,0.4
		c0.2,0.1,0.5,0.2,0.8,0.2c0.4,0,0.9-0.1,1.2-0.4c0.5-0.6,0.6-1.4,0.3-2.1c-0.1-0.2-0.3-0.4-0.6-0.5c-0.2-0.1-0.5-0.1-0.8-0.2
		c-0.3,0-0.5,0-0.8,0v-1.5C395.2,307.6,395.4,307.6,395.6,307.5z"/>
	<path class="st27" d="M400.3,305.9c0.2-0.6,0.4-1.2,0.8-1.6c0.3-0.4,0.7-0.7,1.2-0.9c0.9-0.3,2-0.3,2.9,0c0.5,0.2,0.9,0.5,1.2,0.9
		c0.4,0.5,0.7,1,0.8,1.6c0.2,0.8,0.3,1.7,0.3,2.5c0,0.9-0.1,1.7-0.3,2.6c-0.2,0.6-0.4,1.2-0.8,1.7c-0.3,0.4-0.7,0.7-1.2,0.9
		c-0.9,0.3-2,0.3-2.9,0c-0.5-0.2-0.9-0.5-1.2-0.9c-0.4-0.5-0.7-1.1-0.8-1.7c-0.2-0.8-0.3-1.7-0.3-2.6
		C400,307.6,400.1,306.8,400.3,305.9z M402.1,309.5c0,0.4,0.1,0.8,0.2,1.2c0.1,0.4,0.3,0.7,0.5,1c0.2,0.3,0.6,0.4,1,0.4
		c0.4,0,0.7-0.1,1-0.4c0.2-0.3,0.4-0.6,0.5-1c0.1-0.4,0.2-0.8,0.2-1.2c0-0.4,0-0.8,0-1.1s0-0.4,0-0.6c0-0.3,0-0.5-0.1-0.8
		c0-0.3-0.1-0.5-0.1-0.8c-0.1-0.2-0.2-0.5-0.3-0.7c-0.1-0.2-0.3-0.4-0.5-0.5c-0.2-0.1-0.5-0.2-0.7-0.2c-0.3,0-0.5,0.1-0.7,0.2
		c-0.2,0.1-0.4,0.3-0.5,0.5c-0.1,0.2-0.2,0.4-0.3,0.7c-0.1,0.3-0.1,0.5-0.1,0.8c0,0.3,0,0.5,0,0.8s0,0.5,0,0.6
		S402.1,309.1,402.1,309.5L402.1,309.5z"/>
</g>
<g>
	<path class="st27" d="M392.3,342.2c0.1-0.5,0.4-0.9,0.7-1.3c0.3-0.4,0.7-0.7,1.2-0.9c0.5-0.2,1.1-0.3,1.6-0.3
		c0.5,0,0.9,0.1,1.3,0.2c0.4,0.1,0.8,0.4,1.1,0.6c0.3,0.3,0.6,0.6,0.8,1c0.2,0.4,0.3,0.9,0.3,1.4c0,0.5-0.1,0.9-0.2,1.3
		c-0.2,0.4-0.4,0.7-0.7,1c-0.3,0.3-0.6,0.6-0.9,0.8l-1,0.7c-0.4,0.2-0.7,0.5-1,0.7c-0.3,0.3-0.6,0.6-0.9,0.9h4.9v1.8h-7.5
		c0-0.5,0.1-1.1,0.2-1.6c0.2-0.4,0.4-0.8,0.7-1.2c0.3-0.4,0.6-0.7,1-1c0.4-0.3,0.8-0.6,1.2-0.9l0.7-0.5c0.3-0.2,0.5-0.3,0.7-0.5
		c0.2-0.2,0.4-0.4,0.5-0.7c0.1-0.3,0.2-0.5,0.2-0.8c0.1-0.8-0.5-1.5-1.3-1.6c-0.1,0-0.1,0-0.2,0c-0.3,0-0.5,0.1-0.8,0.2
		c-0.2,0.1-0.4,0.3-0.5,0.6c-0.1,0.2-0.2,0.5-0.3,0.8c-0.1,0.3-0.1,0.6-0.1,0.8h-2C392.1,343.3,392.1,342.7,392.3,342.2z"/>
	<path class="st27" d="M400.3,342.5c0.2-0.6,0.4-1.2,0.8-1.6c0.3-0.4,0.7-0.7,1.2-0.9c0.9-0.3,2-0.3,2.9,0c0.5,0.2,0.9,0.5,1.2,0.9
		c0.4,0.5,0.7,1,0.8,1.6c0.2,0.8,0.3,1.7,0.3,2.5c0,0.9-0.1,1.7-0.3,2.6c-0.2,0.6-0.4,1.2-0.8,1.7c-0.3,0.4-0.7,0.7-1.2,0.9
		c-0.9,0.3-2,0.3-2.9,0c-0.5-0.2-0.9-0.5-1.2-0.9c-0.4-0.5-0.7-1.1-0.8-1.7c-0.2-0.8-0.3-1.7-0.3-2.6
		C400,344.1,400.1,343.3,400.3,342.5z M402.1,346c0,0.4,0.1,0.8,0.2,1.2c0.1,0.4,0.3,0.7,0.5,1c0.2,0.3,0.6,0.4,1,0.4
		c0.4,0,0.7-0.1,1-0.4c0.2-0.3,0.4-0.6,0.5-1c0.1-0.4,0.2-0.8,0.2-1.2c0-0.4,0-0.8,0-1.1s0-0.4,0-0.6c0-0.3,0-0.5-0.1-0.8
		c0-0.3-0.1-0.5-0.1-0.8c-0.1-0.2-0.2-0.5-0.3-0.7c-0.1-0.2-0.3-0.4-0.5-0.5c-0.2-0.1-0.5-0.2-0.7-0.2c-0.3,0-0.5,0.1-0.7,0.2
		c-0.2,0.1-0.4,0.3-0.5,0.5c-0.1,0.2-0.2,0.4-0.3,0.7c-0.1,0.3-0.1,0.5-0.1,0.8c0,0.3,0,0.5,0,0.8s0,0.5,0,0.6
		S402.1,345.6,402.1,346z"/>
</g>
<g>
	<path class="st27" d="M395.2,386.7V380h-2.6v-1.6c0.4,0,0.7,0,1-0.1c0.3-0.1,0.6-0.2,0.9-0.3c0.3-0.2,0.5-0.4,0.7-0.6
		c0.2-0.3,0.3-0.6,0.4-1h1.6v10.3H395.2z"/>
	<path class="st27" d="M400.3,379c0.2-0.6,0.4-1.2,0.8-1.6c0.3-0.4,0.7-0.7,1.2-0.9c0.9-0.3,2-0.3,2.9,0c0.5,0.2,0.9,0.5,1.2,0.9
		c0.4,0.5,0.7,1,0.8,1.6c0.2,0.8,0.3,1.7,0.3,2.5c0,0.9-0.1,1.7-0.3,2.6c-0.2,0.6-0.4,1.2-0.8,1.7c-0.3,0.4-0.7,0.7-1.2,0.9
		c-0.9,0.3-2,0.3-2.9,0c-0.5-0.2-0.9-0.5-1.2-0.9c-0.4-0.5-0.7-1.1-0.8-1.7c-0.2-0.8-0.3-1.7-0.3-2.6
		C400,380.7,400.1,379.8,400.3,379z M402.1,382.6c0,0.4,0.1,0.8,0.2,1.2c0.1,0.4,0.3,0.7,0.5,1c0.2,0.3,0.6,0.4,1,0.4
		c0.4,0,0.7-0.1,1-0.4c0.2-0.3,0.4-0.6,0.5-1c0.1-0.4,0.2-0.8,0.2-1.2c0-0.4,0-0.8,0-1.1s0-0.4,0-0.6c0-0.3,0-0.5-0.1-0.8
		c0-0.3-0.1-0.5-0.1-0.8c-0.1-0.2-0.2-0.5-0.3-0.7c-0.1-0.2-0.3-0.4-0.5-0.5c-0.2-0.1-0.5-0.2-0.7-0.2c-0.3,0-0.5,0.1-0.7,0.2
		c-0.2,0.1-0.4,0.3-0.5,0.5c-0.1,0.2-0.2,0.4-0.3,0.7c-0.1,0.3-0.1,0.5-0.1,0.8c0,0.3,0,0.5,0,0.8s0,0.5,0,0.6
		S402.1,382.2,402.1,382.6z"/>
</g>
<g>
	<g>
		<path class="st28" d="M580,95.1l0.7-2.2l-3.6-2.6l-1.9,1.3l-2-1.5l11-7.4l1.5,1.1l-3.7,12.7L580,95.1z M582.9,86.3l-3.9,2.7
			l2.5,1.8L582.9,86.3z"/>
	</g>
	<g>
		<path class="st28" d="M591.5,103.5l-1.6-1.2l2.6-7.4l-6.3,4.8l-1.6-1.2l4.7-12l2,1.5l-3.1,7.5l6.5-5l1.5,1.1l-2.8,7.7l6.2-5.2
			l2,1.5L591.5,103.5z"/>
	</g>
	<g>
		<path class="st28" d="M601,110.4l0.7-2.2l-3.6-2.6l-1.9,1.3l-2-1.5l11-7.4l1.5,1.1l-3.7,12.7L601,110.4z M603.8,101.6l-3.9,2.7
			l2.5,1.8L603.8,101.6z"/>
		<path class="st28" d="M609.6,116.7l1-5.4l-1.4-1l-2.9,4l-2-1.4l7.3-10.1l3.9,2.9c1.8,1.1,2.3,3.4,1.2,5.2
			c-0.1,0.1-0.1,0.2-0.2,0.3c-0.8,1.2-2.4,1.7-3.8,1.3l-0.9,6L609.6,116.7z M614.1,107.2l-1.8-1.3l-1.9,2.7l1.8,1.3
			c0.7,0.6,1.7,0.4,2.3-0.3S614.9,107.9,614.1,107.2C614.2,107.3,614.1,107.3,614.1,107.2z"/>
		<path class="st28" d="M613.5,119.5l7.3-10l6.6,4.8l-1.3,1.7l-4.7-3.4l-1.7,2.4l4,2.9l-1.3,1.8l-4-2.9l-1.8,2.4l4.7,3.4l-1.3,1.8
			L613.5,119.5z"/>
		<path class="st28" d="M628,130.1l0.5-9.1l-4.5,6.2l-2-1.4l7.3-10l1.8,1.3l-0.5,9.1l4.5-6.2l2,1.4l-7.3,10.1L628,130.1z"/>
		<path class="st28" d="M632.1,133l7.3-10l6.6,4.8l-1.3,1.8l-4.7-3.4l-1.7,2.4l4,2.9l-1.3,1.8l-4-2.9l-1.8,2.4l4.7,3.4l-1.3,1.8
			L632.1,133z"/>
	</g>
	<g>
		<path class="st28" d="M643.3,141.4c-1.4-0.9-2.4-2.3-2.7-4l2.2-0.4c0.2,1.1,0.9,2,1.8,2.6c1.2,0.8,2.1,0.9,2.7,0.1
			c0.2-0.3,0.4-0.7,0.3-1.1c-0.1-0.4-0.3-0.7-0.6-1l-1.1-1.1c-0.7-0.6-1.1-1.4-1.3-2.2c-0.1-0.9,0.1-1.8,0.7-2.5
			c1.3-1.8,3.5-2.1,5.7-0.5c1.3,0.8,2.1,2.1,2.4,3.5l-2.1,0.3c-0.2-0.9-0.8-1.7-1.6-2.2c-0.6-0.7-1.7-0.7-2.3,0
			c-0.1,0.1-0.1,0.1-0.1,0.2c-0.2,0.3-0.3,0.6-0.2,0.9c0.1,0.4,0.3,0.8,0.7,1.1l1.1,1c0.7,0.6,1.1,1.3,1.4,2.2
			c0.1,1-0.2,1.9-0.8,2.7C647.9,143,645.4,142.9,643.3,141.4z"/>
	</g>
	<g>
		<path class="st28" d="M651.6,147.4c-1.4-0.9-2.4-2.3-2.7-4l2.2-0.3c0.2,1.1,0.9,2,1.8,2.6c1.2,0.9,2.1,0.9,2.7,0.1
			c0.3-0.3,0.4-0.7,0.3-1.1c-0.1-0.4-0.3-0.7-0.6-1l-1.1-1.1c-0.7-0.6-1.1-1.4-1.3-2.3c-0.1-0.9,0.1-1.8,0.7-2.5
			c1.3-1.8,3.5-2.1,5.7-0.5c1.3,0.8,2.1,2.1,2.4,3.5l-2.1,0.3c-0.2-0.9-0.7-1.7-1.5-2.2c-0.6-0.7-1.7-0.7-2.3,0
			c-0.1,0.1-0.1,0.1-0.1,0.2c-0.2,0.3-0.3,0.6-0.2,0.9c0.1,0.4,0.3,0.8,0.6,1.1l1.1,1c0.7,0.6,1.1,1.3,1.4,2.2
			c0.1,1-0.2,1.9-0.8,2.7C656.1,149,653.7,148.9,651.6,147.4z"/>
	</g>
</g>
<g>
	<g>
		<path class="st28" d="M740.6,591l-11.8-4l2.6-7.8l2,0.7l-1.8,5.5l2.8,0.9l1.6-4.7l2.1,0.7l-1.6,4.6l2.9,1l1.8-5.5l2,0.7L740.6,591
			z"/>
		<path class="st28" d="M746.3,574l-8.8,2.2l7.2,2.4L744,581l-11.8-4l0.7-2.1l8.8-2.2l-7.2-2.4l0.8-2.3l11.8,4L746.3,574z"/>
	</g>
	<g>
		<path class="st28" d="M749.2,561.5c0.6,1.2,0.7,2.6,0.2,3.8c-0.4,1.2-1.2,2.2-2.4,2.7c-0.6,0.3-1.4,0.5-2.1,0.4
			c-1-0.2-2-0.4-3-0.8c-1-0.3-2-0.7-2.9-1.2c-0.6-0.4-1.1-0.9-1.5-1.6c-0.6-1.1-0.6-2.4-0.2-3.6c0.6-2.3,3-3.7,5.3-3.2l-0.8,2.3
			c-1.1-0.2-2.1,0.5-2.4,1.5c-0.2,0.6-0.2,1.2,0.1,1.7c0.4,0.6,0.8,0.9,3.1,1.7s2.8,0.8,3.5,0.6c0.5-0.2,1-0.7,1.1-1.3
			c0.2-0.6,0.2-1.3-0.1-1.9c-0.3-0.5-0.8-0.9-1.4-1.1l-0.4-0.2l-0.7,2.2l-1.9-0.7l1.5-4.5l1.7,0.6
			C747.3,559.4,748.4,560.3,749.2,561.5z"/>
		<path class="st28" d="M753.7,552.2h-2.3l-1.4,4.2l1.8,1.4l-0.8,2.4l-10.4-8.2l0.6-1.8l13.2-0.3L753.7,552.2z M744.4,552.2l3.8,2.9
			l1-2.9L744.4,552.2z"/>
	</g>
	<g>
		<path class="st28" d="M756.2,540.7c0.6,1.2,0.7,2.5,0.2,3.8c-0.4,1.2-1.2,2.2-2.4,2.7c-0.6,0.3-1.4,0.5-2.1,0.4
			c-1-0.2-2-0.4-3-0.8c-1-0.3-2-0.7-2.9-1.2c-0.6-0.4-1.1-0.9-1.4-1.5c-0.6-1.1-0.7-2.4-0.2-3.6c0.6-2.3,3-3.7,5.3-3.2l-0.8,2.3
			c-1.1-0.2-2.1,0.5-2.4,1.5c-0.2,0.6-0.2,1.2,0.1,1.7c0.4,0.6,0.8,0.9,3.1,1.7s2.8,0.8,3.5,0.6c0.5-0.2,1-0.7,1.1-1.3
			c0.2-0.6,0.2-1.3-0.1-1.9c-0.3-0.5-0.8-0.9-1.4-1.1l-0.4-0.2l-0.7,2.2l-1.9-0.7l1.5-4.5l1.7,0.6
			C754.3,538.7,755.4,539.5,756.2,540.7z"/>
		<path class="st28" d="M758.5,537.9l-11.8-4l2.6-7.8l2.1,0.7l-1.8,5.5l2.8,0.9l1.6-4.7l2,0.7l-1.6,4.7l2.9,1l1.8-5.5l2,0.7
			L758.5,537.9z"/>
		<path class="st28" d="M764.7,519.5l-6.9-2.3l3.7,3.8l-0.5,1.5l-5.2,0.8l6.9,2.3l-0.8,2.3l-11.8-4l0.8-2.3l7.4-0.9l-5.3-5.2
			l0.8-2.3l11.8,4L764.7,519.5z"/>
		<path class="st28" d="M766.4,514.4l-11.8-4l2.6-7.8l2.1,0.7l-1.8,5.5l2.8,0.9l1.6-4.6l2,0.7l-1.6,4.6l2.9,1l1.9-5.4l2,0.7
			L766.4,514.4z"/>
		<path class="st28" d="M772.1,497.4l-8.8,2.2l7.2,2.4l-0.8,2.3l-11.8-4l0.7-2l8.8-2.2l-7.2-2.4l0.8-2.3l11.8,4L772.1,497.4z"/>
		<path class="st28" d="M765.5,484.8l9.7,3.3l-0.8,2.3l-9.7-3.3l-1,3.1l-2.1-0.7l2.8-8.5l2,0.7L765.5,484.8z"/>
	</g>
</g>
<g>
	<g>
		<path class="st28" d="M354,796.3c-1.3,0-2.5-0.5-3.3-1.4c-0.5-0.5-0.9-1.2-1-1.9c-0.2-1-0.2-2.1-0.2-3.1c0-1,0.1-2.1,0.2-3.1
			c0.1-0.7,0.5-1.4,1-1.9c0.9-0.9,2.1-1.4,3.4-1.3c2.3-0.1,4.3,1.7,4.5,4h-2.5c-0.1-1-1-1.8-2.1-1.8c-0.6,0-1.2,0.2-1.5,0.6
			c-0.5,0.5-0.6,1.1-0.6,3.5s0.1,3,0.6,3.5c0.4,0.4,1,0.7,1.5,0.7c1.1,0.1,2-0.7,2.1-1.7h2.5C358.3,794.7,356.3,796.4,354,796.3z"/>
	</g>
	<g>
		<path class="st28" d="M367.6,795c-1.9,1.8-4.9,1.8-6.7-0.1c-1.2-1.3-1.2-2.8-1.2-5s0-3.7,1.3-4.9c1.9-1.8,4.9-1.8,6.7,0.1
			c1.2,1.3,1.2,2.8,1.2,5S368.9,793.8,367.6,795z M365.9,786.5c-0.8-0.9-2.2-0.9-3.1-0.1c0,0,0,0-0.1,0.1c-0.5,0.5-0.6,1.1-0.6,3.5
			s0.1,3,0.6,3.5c0.4,0.4,1,0.7,1.6,0.7c0.6,0,1.2-0.2,1.6-0.6c0.5-0.5,0.6-1.1,0.6-3.5S366.3,787.1,365.9,786.5L365.9,786.5z"/>
		<path class="st28" d="M378.6,796.4l-4.8-7.7l-0.1,7.6h-2.4l0.1-12.4h2.2l4.8,7.7l0.1-7.6h2.4l-0.1,12.4L378.6,796.4z"/>
		<path class="st28" d="M388.2,796.5h-1.8l-4-12.5h2.5l2.4,8.1l2.6-8.1h2.5L388.2,796.5z"/>
		<path class="st28" d="M393.8,796.5l0.1-12.4l8.2,0.1v2.2l-5.8-0.1v2.9h4.9v2.2l-4.9,0v3l5.8,0v2.2L393.8,796.5z"/>
		<path class="st28" d="M411,796.7l-2.4-5h-1.7l0,4.9h-2.4l0.1-12.4h4.9c2.1-0.1,3.9,1.4,4,3.5c0,0.1,0,0.2,0,0.3
			c0,1.5-0.9,2.8-2.3,3.2l2.7,5.4L411,796.7z M409.2,786.5h-2.3v3.3h2.3c0.9,0,1.6-0.7,1.6-1.6S410.1,786.4,409.2,786.5L409.2,786.5
			z"/>
		<path class="st28" d="M419.2,796.9c-1.7,0.1-3.3-0.5-4.5-1.7l1.6-1.5c0.8,0.7,1.9,1.1,3,1.1c1.4,0,2.2-0.5,2.2-1.5
			c0-0.4-0.1-0.7-0.4-1c-0.3-0.3-0.7-0.4-1.1-0.4l-1.5-0.2c-0.9-0.1-1.7-0.4-2.4-1c-0.6-0.7-0.9-1.6-0.9-2.5c0-2.2,1.7-3.8,4.4-3.7
			c1.5-0.1,2.9,0.5,4,1.5l-1.5,1.5c-0.7-0.6-1.6-0.9-2.5-0.9c-1.3,0-1.9,0.7-1.9,1.5c0,0.3,0.1,0.7,0.4,0.9c0.3,0.3,0.7,0.4,1.1,0.5
			l1.5,0.2c0.9,0.1,1.7,0.4,2.4,1c0.7,0.7,1,1.7,0.9,2.6C423.8,795.6,421.8,796.9,419.2,796.9z"/>
		<path class="st28" d="M426.1,796.9l0.1-12.4h2.4l-0.1,12.4L426.1,796.9z"/>
		<path class="st28" d="M438.9,795.8c-1.9,1.8-4.9,1.8-6.7-0.1c-1.2-1.3-1.2-2.8-1.2-5s0-3.7,1.3-4.9c1.9-1.8,4.9-1.8,6.7,0.1
			c1.2,1.3,1.2,2.8,1.2,5S440.2,794.5,438.9,795.8z M437.2,787.3c-0.4-0.4-1-0.7-1.5-0.7c-0.6,0-1.2,0.2-1.6,0.7
			c-0.5,0.5-0.6,1.1-0.6,3.5s0.1,3,0.6,3.5c0.4,0.4,1,0.7,1.6,0.7c0.6,0,1.2-0.2,1.6-0.7c0.5-0.5,0.6-1.1,0.6-3.5
			S437.6,787.8,437.2,787.3z"/>
		<path class="st28" d="M449.9,797.1l-4.8-7.7l-0.1,7.6h-2.4l0.1-12.4h2.2l4.8,7.6l0.1-7.6h2.4l-0.1,12.4L449.9,797.1z"/>
	</g>
</g>
<g>
	<g>
		<path class="st28" d="M28,503.4l11.8-3.9l0.8,2.3l-9.8,3.2l1.8,5.4l-2,0.7L28,503.4z"/>
	</g>
	<g>
		<path class="st28" d="M34.5,519.2c-2.3-1.2-3.2-4-2.1-6.4c0.8-1.6,2.3-2,4.3-2.7s3.5-1.2,5.1-0.4c2.3,1.2,3.2,4,2.1,6.4
			c-0.8,1.6-2.3,2-4.3,2.7S36,520,34.5,519.2z M41.9,514.9c0.3-0.5,0.4-1.1,0.2-1.7c-0.2-0.6-0.5-1-1.1-1.3
			c-0.6-0.3-1.2-0.2-3.5,0.5s-2.8,1-3.1,1.6c-0.3,0.5-0.3,1.1-0.1,1.7c0.2,0.5,0.5,1,1.1,1.2c0.7,0.3,1.2,0.2,3.5-0.5
			S41.6,515.5,41.9,514.9z"/>
	</g>
	<g>
		<path class="st28" d="M40.7,525.9l-4.8,1.6l-0.8-2.3l4.8-1.6l5.8-5.8l0.8,2.5l-4,3.8l5.5,0.6l0.8,2.5L40.7,525.9z"/>
	</g>
	<g>
		<path class="st28" d="M39.4,538.5l1.9-1.4l-1.4-4.2h-2.3l-0.8-2.4l13.2,0.4l0.6,1.8l-10.4,8.2L39.4,538.5z M46.8,533l-4.8-0.1
			l1,2.9L46.8,533z"/>
	</g>
	<g>
		<path class="st28" d="M40.7,542.3l11.8-3.8l0.8,2.3l-9.7,3.2l1.7,5.3l-2,0.7L40.7,542.3z"/>
	</g>
	<g>
		<path class="st28" d="M54.6,551.8l-9.7,3.2l-0.8-2.3l9.7-3.2l-1-3.1l2.1-0.7l2.8,8.5l-2.1,0.7L54.6,551.8z"/>
		<path class="st28" d="M52.8,562.9l-4.8,1.6l-0.7-2.3l4.8-1.6l5.8-5.8l0.8,2.5l-4,3.8l5.5,0.6l0.8,2.5L52.8,562.9z"/>
	</g>
</g>
<g>
	<g>
		<path class="st28" d="M154.2,142.4l-1.9-1.4l-3.6,2.6l0.7,2.2l-2.1,1.5l-3.5-12.8l1.6-1.1l10.9,7.5L154.2,142.4z M146.8,136.9
			l1.3,4.6l2.5-1.8L146.8,136.9z"/>
	</g>
	<g>
		<path class="st28" d="M163.2,134.6c-0.3,1.2-1,2.2-2,2.9l-3.7,2.6l-7.2-10.2l3.7-2.6c1-0.7,2.2-1.1,3.4-0.9c2,0.3,2.8,1.8,3.9,3.4
			S163.6,132.6,163.2,134.6z M157,128.8c-0.7-0.2-1.4,0-1.9,0.4l-1.5,1.1l4.7,6.6l1.5-1.1c0.6-0.4,1-1,1-1.7c0-0.7-0.4-1.5-1.5-3
			S157.7,129,157,128.8L157,128.8z"/>
		<path class="st28" d="M170.4,131l-1.5,1l-10.6-7.8l2.1-1.5l6.7,5.2l-2.6-8.1l2.1-1.5L170.4,131z"/>
	</g>
	<g>
		<path class="st28" d="M180.4,122.3c-0.5,2.6-2.9,4.3-5.5,3.9c-1.8-0.3-2.6-1.6-3.9-3.3s-2.2-3-1.9-4.8c0.5-2.6,2.9-4.3,5.5-3.9
			c1.8,0.3,2.6,1.6,3.9,3.3S180.7,120.6,180.4,122.3z M174.1,116.4c-0.6-0.1-1.2,0-1.6,0.3c-0.5,0.3-0.8,0.9-0.9,1.4
			c-0.1,0.7,0.1,1.2,1.5,3.2s1.8,2.4,2.5,2.5c0.6,0.1,1.2,0,1.7-0.4c0.5-0.3,0.8-0.9,0.9-1.4c0.1-0.7-0.1-1.2-1.5-3.2
			S174.8,116.6,174.1,116.4z"/>
	</g>
	<g>
		<path class="st28" d="M187.7,118.9c-1,0.7-2.3,1-3.5,0.8c-0.7-0.1-1.4-0.5-1.9-0.9c-0.7-0.7-1.4-1.5-2-2.4
			c-0.6-0.8-1.2-1.7-1.6-2.7c-0.3-0.7-0.4-1.4-0.2-2.1c0.2-1.2,0.9-2.4,1.9-3.1c1.8-1.4,4.5-1.2,6,0.6l-2,1.4
			c-0.7-0.8-1.9-0.9-2.7-0.2c-0.5,0.3-0.8,0.8-0.9,1.4c-0.1,0.7,0.1,1.3,1.5,3.2s1.8,2.4,2.5,2.5c0.6,0.1,1.2,0,1.6-0.4
			c0.9-0.6,1.2-1.7,0.7-2.7l2-1.4C190.2,115,189.6,117.6,187.7,118.9z"/>
	</g>
	<g>
		<path class="st28" d="M198.7,111l-1.9-1.4l-3.6,2.6l0.7,2.2l-2.1,1.5l-3.5-12.9l1.6-1.1l10.9,7.6L198.7,111z M191.3,105.5l1.3,4.6
			l2.5-1.8L191.3,105.5z"/>
	</g>
	<g>
		<path class="st28" d="M205.4,106.4c-1,0.8-2.3,1.1-3.5,0.8c-0.7-0.1-1.4-0.4-1.9-0.9c-0.7-0.7-1.4-1.5-2-2.4
			c-0.6-0.8-1.2-1.7-1.6-2.7c-0.3-0.7-0.4-1.4-0.3-2.1c0.2-1.2,0.9-2.3,2-3c1.8-1.4,4.5-1.2,6,0.6l-2,1.4c-0.7-0.8-1.9-0.9-2.7-0.2
			c-0.5,0.3-0.8,0.8-0.9,1.4c-0.1,0.7,0.1,1.2,1.5,3.2s1.8,2.4,2.5,2.5c0.6,0.1,1.2,0,1.6-0.4c0.9-0.6,1.2-1.7,0.7-2.7l2-1.4
			C207.9,102.5,207.3,105.1,205.4,106.4z"/>
	</g>
	<g>
		<path class="st28" d="M211.5,95.6l2.9,4.2l-2,1.4l-2.9-4.2l-7.3-3.8l2.2-1.5l4.8,2.8l-1-5.4l2.2-1.5L211.5,95.6z"/>
	</g>
</g>
</svg>
