<svg xmlns="http://www.w3.org/2000/svg" viewBox="0 0 800 800"><defs><style>.cls-1{fill:#99caaf;}.cls-1,.cls-10,.cls-11,.cls-12,.cls-13,.cls-14,.cls-15,.cls-16,.cls-17,.cls-18,.cls-19,.cls-2,.cls-20,.cls-3,.cls-4,.cls-5,.cls-6,.cls-7,.cls-8,.cls-9{stroke:#f2f2f2;stroke-width:0.5px;}.cls-1,.cls-10,.cls-11,.cls-12,.cls-13,.cls-14,.cls-15,.cls-16,.cls-17,.cls-18,.cls-19,.cls-2,.cls-20,.cls-21,.cls-22,.cls-3,.cls-4,.cls-5,.cls-6,.cls-7,.cls-8,.cls-9{stroke-miterlimit:10;}.cls-2{fill:#f4b983;}.cls-3{fill:#d7c7e3;}.cls-4{fill:#b2d0eb;}.cls-5{fill:#77b894;}.cls-6{fill:#f0a25a;}.cls-7{fill:#b090c6;}.cls-8{fill:#65a1d7;}.cls-9{fill:#55a679;}.cls-10{fill:#ec8b31;}.cls-11{fill:#9c74b8;}.cls-12{fill:#3f8acd;}.cls-13{fill:#407d5b;}.cls-14{fill:#b16825;}.cls-15{fill:#75578a;}.cls-16{fill:#2f689a;}.cls-17{fill:#2b533d;}.cls-18{fill:#764619;}.cls-19{fill:#4e3a5c;}.cls-20{fill:#204567;}.cls-21{fill:none;stroke-width:0.75px;}.cls-21,.cls-22{stroke:#fff;}.cls-22{fill:#fff;}.cls-23{font-size:14.68px;fill:#4d4d4d;font-family:HelveticaNeue-CondensedBold, Helvetica Neue;}.cls-23,.cls-24,.cls-29,.cls-31,.cls-33{font-weight:700;}.cls-24{font-size:17.43px;}.cls-24,.cls-29,.cls-31,.cls-33{fill:#666;font-family:DINOT-Bold, DIN OT;}.cls-25{letter-spacing:-0.03em;}.cls-26{letter-spacing:-0.02em;}.cls-27{letter-spacing:-0.01em;}.cls-28{letter-spacing:0em;}.cls-29{font-size:17.43px;}.cls-30{letter-spacing:-0.01em;}.cls-31{font-size:17.43px;}.cls-32{letter-spacing:-0.03em;}.cls-33{font-size:17.43px;}</style></defs><g id="Shapes"><polygon class="cls-1" points="400.64 414.39 763.42 414.39 735.9 276.05 657.02 158.01 538.98 79.13 400.64 51.62 400.64 414.39"/><polygon class="cls-2" points="398.82 414.39 398.82 51.62 260.49 79.13 142.44 158.01 63.57 276.05 36.05 414.39 398.82 414.39"/><polygon class="cls-3" points="398.82 416.21 36.05 416.21 63.57 554.54 142.44 672.59 260.49 751.47 398.82 778.98 398.82 416.21"/><polygon class="cls-4" points="400.64 416.21 400.64 778.98 538.98 751.47 657.02 672.59 735.9 554.54 763.42 416.21 400.64 416.21"/><polygon class="cls-1" points="400.56 414.48 727.96 414.48 703.12 289.63 631.94 183.1 525.4 111.91 400.56 87.08 400.56 414.48"/><polygon class="cls-2" points="398.91 414.48 398.91 87.08 274.07 111.91 167.53 183.1 96.35 289.63 71.51 414.48 398.91 414.48"/><polygon class="cls-3" points="398.91 416.12 71.51 416.12 96.35 540.97 167.53 647.5 274.07 718.69 398.91 743.52 398.91 416.12"/><polygon class="cls-4" points="400.56 416.12 400.56 743.52 525.4 718.69 631.94 647.5 703.12 540.97 727.96 416.12 400.56 416.12"/><polygon class="cls-5" points="400.46 414.58 688.39 414.58 666.55 304.78 603.95 211.08 510.25 148.48 400.46 126.64 400.46 414.58"/><polygon class="cls-6" points="399.01 414.58 399.01 126.64 289.21 148.48 195.52 211.08 132.91 304.78 111.07 414.58 399.01 414.58"/><polygon class="cls-7" points="399.01 416.02 111.07 416.02 132.91 525.82 195.52 619.51 289.21 682.12 399.01 703.96 399.01 416.02"/><polygon class="cls-8" points="400.46 416.02 400.46 703.96 510.25 682.12 603.95 619.51 666.55 525.82 688.39 416.02 400.46 416.02"/><polygon class="cls-5" points="400.37 414.66 653.86 414.66 634.63 318 579.51 235.52 497.03 180.4 400.37 161.18 400.37 414.66"/><polygon class="cls-6" points="399.1 414.66 399.1 161.18 302.44 180.4 219.95 235.52 164.84 318 145.61 414.66 399.1 414.66"/><polygon class="cls-7" points="399.1 415.93 145.61 415.93 164.84 512.6 219.95 595.08 302.44 650.19 399.1 669.42 399.1 415.93"/><polygon class="cls-8" points="400.37 415.93 400.37 669.42 497.03 650.19 579.51 595.08 634.63 512.6 653.86 415.93 400.37 415.93"/><polygon class="cls-9" points="400.28 414.75 617.23 414.75 600.77 332.03 553.6 261.43 483.01 214.26 400.28 197.81 400.28 414.75"/><polygon class="cls-10" points="399.19 414.75 399.19 197.81 316.46 214.26 245.87 261.43 198.7 332.03 182.24 414.75 399.19 414.75"/><polygon class="cls-11" points="399.19 415.84 182.24 415.84 198.7 498.57 245.87 569.16 316.46 616.34 399.19 632.79 399.19 415.84"/><polygon class="cls-12" points="400.28 415.84 400.28 632.79 483.01 616.34 553.6 569.16 600.77 498.57 617.23 415.84 400.28 415.84"/><polygon class="cls-9" points="400.19 414.84 582.03 414.84 568.24 345.5 528.7 286.33 469.53 246.8 400.19 233 400.19 414.84"/><polygon class="cls-10" points="399.28 414.84 399.28 233 329.94 246.8 270.77 286.33 231.23 345.5 217.44 414.84 399.28 414.84"/><polygon class="cls-11" points="399.28 415.75 217.44 415.75 231.23 485.1 270.77 544.27 329.94 583.8 399.28 597.6 399.28 415.75"/><polygon class="cls-12" points="400.19 415.75 400.19 597.6 469.53 583.8 528.7 544.27 568.24 485.1 582.03 415.75 400.19 415.75"/><polygon class="cls-13" points="400.1 414.93 545.58 414.93 534.54 359.46 502.91 312.12 455.57 280.49 400.1 269.46 400.1 414.93"/><polygon class="cls-14" points="399.37 414.93 399.37 269.46 343.89 280.49 296.56 312.12 264.93 359.46 253.89 414.93 399.37 414.93"/><polygon class="cls-15" points="399.37 415.66 253.89 415.66 264.93 471.14 296.56 518.48 343.89 550.11 399.37 561.14 399.37 415.66"/><polygon class="cls-16" points="400.1 415.66 400.1 561.14 455.57 550.11 502.91 518.48 534.54 471.14 545.58 415.66 400.1 415.66"/><polygon class="cls-13" points="400.01 415.02 509.08 415.02 500.81 373.43 477.09 337.94 441.6 314.23 400.01 305.95 400.01 415.02"/><polygon class="cls-14" points="399.46 415.02 399.46 305.95 357.87 314.23 322.38 337.94 298.66 373.43 290.39 415.02 399.46 415.02"/><polygon class="cls-15" points="399.46 415.57 290.39 415.57 298.66 457.17 322.38 492.66 357.87 516.37 399.46 524.64 399.46 415.57"/><polygon class="cls-16" points="400.01 415.57 400.01 524.64 441.6 516.37 477.09 492.66 500.81 457.17 509.08 415.57 400.01 415.57"/><polygon class="cls-17" points="399.92 415.11 474.38 415.11 468.73 386.72 452.55 362.49 428.31 346.3 399.92 340.65 399.92 415.11"/><polygon class="cls-18" points="399.55 415.11 399.55 340.65 371.15 346.3 346.92 362.49 330.73 386.72 325.08 415.11 399.55 415.11"/><polygon class="cls-19" points="399.55 415.49 325.08 415.49 330.73 443.88 346.92 468.11 371.15 484.3 399.55 489.95 399.55 415.49"/><polygon class="cls-20" points="399.92 415.49 399.92 489.95 428.31 484.3 452.55 468.11 468.73 443.88 474.38 415.49 399.92 415.49"/><polygon class="cls-17" points="399.83 415.2 438.49 415.2 435.56 400.46 427.15 387.88 414.57 379.48 399.83 376.55 399.83 415.2"/><polygon class="cls-18" points="399.64 415.2 399.64 376.55 384.9 379.48 372.32 387.88 363.91 400.46 360.98 415.2 399.64 415.2"/><polygon class="cls-19" points="399.64 415.4 360.98 415.4 363.91 430.14 372.32 442.72 384.9 451.12 399.64 454.05 399.64 415.4"/><polygon class="cls-20" points="399.83 415.4 399.83 454.05 414.57 451.12 427.15 442.72 435.56 430.14 438.49 415.4 399.83 415.4"/></g><g id="Lines"><line class="cls-21" x1="399.73" y1="51.62" x2="399.73" y2="778.98"/><line class="cls-21" x1="763.42" y1="415.3" x2="36.05" y2="415.3"/><line class="cls-21" x1="260.56" y1="79.3" x2="538.91" y2="751.3"/><line class="cls-21" x1="735.73" y1="276.12" x2="63.73" y2="554.47"/><line class="cls-21" x1="142.57" y1="158.14" x2="656.9" y2="672.46"/><line class="cls-21" x1="656.9" y1="158.14" x2="142.57" y2="672.46"/><line class="cls-21" x1="63.73" y1="276.12" x2="735.73" y2="554.47"/><line class="cls-21" x1="538.91" y1="79.3" x2="260.56" y2="751.3"/></g><g id="Labels"><rect class="cls-22" x="386.45" y="80.71" width="24.28" height="18.08"/><rect class="cls-22" x="386.45" y="44.26" width="24.28" height="18.08"/><rect class="cls-22" x="386.45" y="117.16" width="24.28" height="18.08"/><rect class="cls-22" x="386.45" y="153.61" width="24.28" height="18.08"/><rect class="cls-22" x="386.45" y="190.06" width="24.28" height="18.08"/><rect class="cls-22" x="386.45" y="226.51" width="24.28" height="18.08"/><rect class="cls-22" x="386.45" y="262.96" width="24.28" height="18.08"/><rect class="cls-22" x="386.45" y="299.41" width="24.28" height="18.08"/><rect class="cls-22" x="386.45" y="335.86" width="24.28" height="18.08"/><rect class="cls-22" x="386.45" y="372.31" width="24.28" height="18.08"/><text class="cls-23" transform="translate(388.03 57.88)">100</text><text class="cls-23" transform="translate(391.55 94.42)">90</text><text class="cls-23" transform="translate(391.55 130.96)">80</text><text class="cls-23" transform="translate(391.55 167.49)">70</text><text class="cls-23" transform="translate(391.55 204.03)">60</text><text class="cls-23" transform="translate(391.55 240.56)">50</text><text class="cls-23" transform="translate(391.55 277.1)">40</text><text class="cls-23" transform="translate(391.55 313.63)">30</text><text class="cls-23" transform="translate(391.55 350.17)">20</text><text class="cls-23" transform="translate(391.55 386.7)">10</text><text class="cls-24" transform="matrix(0.71, 0.7, -0.7, 0.71, 625.54, 120.13)"><tspan class="cls-25">A</tspan><tspan class="cls-26" x="10.65" y="0">W</tspan><tspan x="25.83" y="0">ARENE</tspan><tspan class="cls-27" x="81.84" y="0">S</tspan><tspan class="cls-28" x="92.04" y="0">S</tspan></text><text class="cls-29" transform="matrix(0.7, -0.71, 0.71, 0.7, 634.3, 720.94)">EN<tspan class="cls-30" x="22.94" y="0">GA</tspan><tspan x="44.82" y="0">GEMENT</tspan></text><text class="cls-31" transform="matrix(0.75, 0.66, -0.66, 0.75, 87.37, 646.04)"><tspan class="cls-32">C</tspan><tspan x="10.25" y="0">ONVERSION</tspan></text><text class="cls-33" transform="matrix(0.66, -0.75, 0.75, 0.66, 107.1, 190.91)">RETENTION</text></g></svg>